<svg width="120" height="120" viewBox="0 0 120 120" fill="none" xmlns="http://www.w3.org/2000/svg">
  <path d="M35.7516 47.9672C42.379 47.9672 47.7516 42.5946 47.7516 35.9672C47.7516 29.3398 42.379 23.9672 35.7516 23.9672C29.1241 23.9672 23.7516 29.3398 23.7516 35.9672C23.7516 42.5946 29.1241 47.9672 35.7516 47.9672Z" fill="black" />
  <path d="M84.2484 47.9672C90.8759 47.9672 96.2484 42.5946 96.2484 35.9672C96.2484 29.3398 90.8759 23.9672 84.2484 23.9672C77.621 23.9672 72.2484 29.3398 72.2484 35.9672C72.2484 42.5946 77.621 47.9672 84.2484 47.9672Z" fill="black" />
  <path fill-rule="evenodd" clip-rule="evenodd" d="M69.5976 57.9787C69.5976 56.1947 65.2978 54.75 60 54.75C54.7021 54.75 50.4024 56.2044 50.4024 57.9787C50.4024 59.4913 53.464 63.0497 57.6006 64.1356V68.2854L48.7036 77.2735C48.2531 77.7286 48 78.346 48 78.9896C48 79.6333 48.2531 80.2507 48.7036 80.7058C49.1542 81.161 49.7652 81.4167 50.4024 81.4167C51.0396 81.4167 51.6506 81.161 52.1012 80.7058L60 72.7261L67.8988 80.7058C68.3493 81.161 68.9604 81.4167 69.5976 81.4167C70.2347 81.4167 70.8458 81.161 71.2963 80.7058C71.7469 80.2507 72 79.6333 72 78.9896C72 78.346 71.7469 77.7286 71.2963 77.2735L62.3994 68.2854V64.1356C66.5359 63.0497 69.5976 59.4816 69.5976 57.9787Z" fill="black" />
  <path d="M36.1709 55.7417C34.1047 55.1907 31.9009 54.9152 29.697 54.9152C27.4932 54.7775 25.4271 54.9152 23.2232 55.3284C21.1571 55.6039 18.9533 56.1549 16.8872 56.8436C12.7549 58.221 9.03594 60.2871 5.59242 62.9042C3.93954 64.1438 2.28665 65.659 0.90924 67.1741C0.220537 67.8628 1.18472 68.9648 2.01117 68.4138C3.66405 67.1741 5.45468 66.0722 7.24531 65.108C10.6888 63.0419 14.4078 61.389 18.1268 60.1494C20.0552 59.4607 21.9836 59.0474 23.9119 58.6342C25.8403 58.221 27.9064 57.9455 29.8348 57.8078C31.9009 57.67 33.967 57.5323 36.0331 57.67C36.9973 57.3945 37.2728 55.8794 36.1709 55.7417ZM34.7935 66.0722C32.3141 66.3477 29.8348 66.8986 27.3555 67.7251C25.0139 68.5515 22.6723 69.5157 20.4684 70.7554C18.2646 71.9951 16.1985 73.3725 14.2701 74.8876C10.4133 78.0556 6.96983 81.6369 4.07728 85.7691C2.69987 87.8352 1.32246 89.9013 0.0827965 92.1052C-0.330426 92.9316 0.909241 93.7581 1.4602 92.9316C2.97535 91.0033 4.4905 89.2126 6.14339 87.422C9.31142 83.8408 12.7549 80.535 16.3362 77.6424C18.1268 76.1273 20.0552 74.8876 22.1213 73.5102C24.0497 72.2705 26.1158 71.1686 28.3196 70.2044C30.5235 69.2402 32.7273 68.4138 35.0689 67.7251C36.0331 67.4496 35.8954 66.0722 34.7935 66.0722ZM83.8291 55.7417C85.8953 55.1907 88.0991 54.9152 90.3029 54.9152C92.5068 54.7775 94.5729 54.9152 96.7768 55.3284C98.8429 55.6039 101.047 56.1549 103.113 56.8436C107.245 58.221 110.964 60.2871 114.408 62.9042C116.06 64.1438 117.713 65.659 119.091 67.1741C119.779 67.8628 118.815 68.9648 117.989 68.4138C116.336 67.1741 114.545 66.0722 112.755 65.108C109.311 63.0419 105.592 61.389 101.873 60.1494C99.9448 59.4607 98.0164 59.0474 96.0881 58.6342C94.1597 58.221 92.0936 57.9455 90.1652 57.8078C88.0991 57.67 86.033 57.5323 83.9669 57.67C83.0027 57.3945 82.7272 55.8794 83.8291 55.7417ZM85.2065 66.0722C87.6859 66.3477 90.1652 66.8986 92.6445 67.7251C94.9861 68.5515 97.3277 69.5157 99.5316 70.7554C101.735 71.9951 103.802 73.3725 105.73 74.8876C109.587 78.0556 113.03 81.6369 115.923 85.7691C117.3 87.8352 118.678 89.9013 119.917 92.1052C120.33 92.9316 119.091 93.7581 118.54 92.9316C117.025 91.0033 115.509 89.2126 113.857 87.422C110.689 83.8408 107.245 80.535 103.664 77.6424C101.873 76.1273 99.9448 74.8876 97.8787 73.5102C95.8126 72.2705 93.7465 71.1686 91.6804 70.2044C89.4765 69.2402 87.2727 68.4138 84.9311 67.7251C83.9669 67.4496 84.1046 66.0722 85.2065 66.0722Z" fill="black" />
  <path d="M46.1358 32.5698C46.136 33.6758 45.8437 34.7622 45.2886 35.7188C44.7358 36.682 43.9386 37.4823 42.9775 38.0389C42.0165 38.5954 40.9256 38.8886 39.815 38.8887C38.139 38.8887 36.5317 38.223 35.3465 37.038C34.1613 35.853 33.4954 34.2458 33.4951 32.5698C33.4958 31.2584 33.9047 29.9796 34.6649 28.911C35.4252 27.8423 36.4991 27.0367 37.7379 26.606C38.4053 26.3714 39.1075 26.2511 39.815 26.25C41.4912 26.25 43.0988 26.9158 44.2841 28.101C45.4695 29.2861 46.1355 30.8936 46.1358 32.5698ZM27.7928 41.5355C27.8929 40.9108 28.2123 40.3421 28.6937 39.9314C29.1751 39.5207 29.787 39.2949 30.4197 39.2944C30.7704 39.2944 31.1176 39.3634 31.4416 39.4977C31.7656 39.6319 32.0599 39.8286 32.3079 40.0767C32.5558 40.3247 32.7524 40.6191 32.8865 40.9431C33.0206 41.2671 33.0896 41.6144 33.0895 41.9651C33.0895 43.1801 32.2731 44.1923 31.1625 44.5165C30.9217 44.5906 30.6716 44.6301 30.4197 44.6338C29.7117 44.6338 29.0326 44.3525 28.532 43.8519C28.0313 43.3512 27.75 42.6721 27.75 41.9641C27.75 41.8179 27.7709 41.6767 27.7928 41.5355Z" fill="white" />
  <path d="M94.1358 32.5699C94.136 33.6759 93.8437 34.7622 93.2886 35.7188C92.7358 36.6821 91.9386 37.4823 90.9775 38.0389C90.0164 38.5955 88.9255 38.8886 87.815 38.8887C86.139 38.8887 84.5317 38.223 83.3465 37.038C82.1613 35.853 81.4954 34.2458 81.4951 32.5699C81.4958 31.2584 81.9047 29.9796 82.6649 28.911C83.4252 27.8423 84.4991 27.0368 85.7378 26.606C86.4053 26.3714 87.1075 26.2511 87.815 26.25C89.4912 26.25 91.0987 26.9158 92.2841 28.101C93.4695 29.2862 94.1355 30.8937 94.1358 32.5699ZM75.7927 41.5356C75.8929 40.9108 76.2123 40.3421 76.6937 39.9314C77.1751 39.5208 77.787 39.2949 78.4197 39.2944C78.7704 39.2944 79.1176 39.3635 79.4416 39.4977C79.7656 39.6319 80.0599 39.8287 80.3078 40.0767C80.5558 40.3247 80.7524 40.6191 80.8865 40.9431C81.0206 41.2672 81.0896 41.6144 81.0894 41.9651C81.0894 43.1802 80.2731 44.1924 79.1625 44.5165C78.9217 44.5906 78.6716 44.6301 78.4197 44.6338C77.7117 44.6338 77.0326 44.3526 76.5319 43.8519C76.0313 43.3512 75.75 42.6722 75.75 41.9641C75.75 41.8179 75.7709 41.6768 75.7927 41.5356Z" fill="white" />
</svg>