<svg width="32" height="32" viewBox="0 0 32 32" fill="none" xmlns="http://www.w3.org/2000/svg">
  <path d="M11.5118 18.6515C11.5118 18.6515 7.31955 20.9139 4.14059 19.4314C0.961636 17.9489 0 13.2835 0 13.2835C0 13.2835 4.19221 11.0212 7.37117 12.5036C10.5501 13.9861 11.5118 18.6515 11.5118 18.6515Z" fill="#EEDD55" />
  <path d="M10.3683 15.9678C10.3683 15.8348 10.3613 15.7033 10.3491 15.5735C9.70219 14.3781 8.74357 13.1441 7.37053 12.5038C6.68015 12.1819 5.94192 12.0369 5.20934 12.0067C3.45843 12.4737 2.16846 14.0698 2.16846 15.9678C2.16846 17.3418 2.84509 18.5571 3.88264 19.301C3.96711 19.3471 4.05292 19.3907 4.13995 19.4318C5.20501 19.9283 6.38327 20.0037 7.47997 19.8855C9.1529 19.3688 10.3683 17.8103 10.3683 15.9678Z" fill="#AC8D22" />
  <path d="M7.37127 12.5036C6.8655 12.2678 6.3341 12.1275 5.79799 12.057C4.99365 13.1857 4.68189 14.6449 5.04451 16.0397C5.2133 16.6966 5.51956 17.3101 5.94304 17.8398C6.29982 18.2849 7.00753 18.0306 7.02222 17.4604C7.04169 16.723 7.23082 15.9999 7.57495 15.3474C7.91908 14.6948 8.40895 14.1303 9.00653 13.6977C8.54106 13.2159 8.00025 12.7969 7.37127 12.5036Z" fill="black" />
  <path d="M4.62346 15.7708L4.36407 15.7013C4.15015 15.6433 3.96786 15.5031 3.85703 15.3111C3.74621 15.1192 3.71584 14.8912 3.77258 14.6769C3.83055 14.463 3.97082 14.2807 4.16276 14.1699C4.3547 14.0591 4.5827 14.0287 4.79695 14.0855L5.05634 14.155C5.27026 14.2129 5.45255 14.3532 5.56338 14.5451C5.6742 14.7371 5.70456 14.9651 5.64782 15.1793C5.58986 15.3932 5.44958 15.5755 5.25765 15.6864C5.06571 15.7972 4.83771 15.8276 4.62346 15.7708Z" fill="#EDEDF4" />
  <path d="M20.4883 18.6515C20.4883 18.6515 24.6805 20.9139 27.8595 19.4314C31.0384 17.9491 32 13.2835 32 13.2835C32 13.2835 27.8078 11.0212 24.6289 12.5036C21.4499 13.9861 20.4883 18.6515 20.4883 18.6515Z" fill="#EEDD55" />
  <path d="M26.7893 12.0067C26.0567 12.0369 25.3185 12.1819 24.6281 12.5038C23.2551 13.1441 22.2965 14.3779 21.6496 15.5735C21.6369 15.7046 21.6305 15.8361 21.6304 15.9678C21.6304 17.8103 22.8459 19.3688 24.5187 19.8855C25.6154 20.0037 26.7938 19.9283 27.8587 19.4318C27.9465 19.3909 28.0318 19.3466 28.116 19.301C29.1536 18.5571 29.8302 17.3418 29.8302 15.9678C29.83 14.0698 28.54 12.4737 26.7893 12.0067Z" fill="#AC8D22" />
  <path d="M26.0571 17.8398C26.4806 17.3102 26.7868 16.6966 26.9555 16.0397C27.3181 14.6447 27.0063 13.1857 26.202 12.057C25.6659 12.1275 25.1345 12.2678 24.6287 12.5036C23.9997 12.7969 23.4587 13.2159 22.9937 13.6977C23.5912 14.1303 24.0811 14.6948 24.4252 15.3474C24.7694 15.9999 24.9585 16.723 24.978 17.4604C24.9927 18.0306 25.7006 18.2849 26.0571 17.8398Z" fill="black" />
  <path d="M24.1969 15.939L24.4562 15.8695C24.6702 15.8115 24.8525 15.6713 24.9633 15.4793C25.0741 15.2874 25.1045 15.0594 25.0477 14.8451C24.9898 14.6312 24.8495 14.4489 24.6575 14.3381C24.4656 14.2273 24.2376 14.1969 24.0234 14.2537L23.764 14.3232C23.5501 14.3811 23.3678 14.5214 23.2569 14.7133C23.1461 14.9053 23.1157 15.1333 23.1725 15.3475C23.2305 15.5615 23.3707 15.7437 23.5627 15.8546C23.7546 15.9654 23.9826 15.9958 24.1969 15.939Z" fill="#EDEDF4" />
</svg>