<svg width="120" height="120" viewBox="0 0 120 120" fill="none" xmlns="http://www.w3.org/2000/svg">
<path d="M44.5717 67.8646C44.5717 67.8646 30.161 75.6414 19.2333 70.5454C8.30562 65.4493 5 49.412 5 49.412C5 49.412 19.4107 41.6352 30.3384 46.7313C41.2661 51.8273 44.5717 67.8646 44.5717 67.8646Z" fill="#EEDD55"/>
<path d="M40.6424 58.6389C40.6424 58.1818 40.6185 57.7298 40.5764 57.2836C38.3528 53.1744 35.0575 48.9325 30.3377 46.7315C27.9645 45.6249 25.4268 45.1263 22.9086 45.0227C16.8898 46.6279 12.4556 52.1144 12.4556 58.6389C12.4556 63.362 14.7815 67.5398 18.3481 70.0969C18.6384 70.2553 18.9334 70.4052 19.2326 70.5463C22.8937 72.2532 26.944 72.5122 30.7139 72.1062C36.4646 70.33 40.6424 64.9724 40.6424 58.6389Z" fill="#CCAA33"/>
<path d="M30.339 46.7312C28.6004 45.9205 26.7737 45.4381 24.9308 45.1959C22.1659 49.0759 21.0942 54.0917 22.3407 58.8866C22.921 61.1445 23.9737 63.2535 25.4294 65.0744C26.6559 66.6045 29.0886 65.7303 29.1391 63.7702C29.206 61.2352 29.8562 58.7496 31.0391 56.5065C32.2221 54.2633 33.906 52.3229 35.9602 50.8359C34.3601 49.1795 32.5011 47.7394 30.339 46.7312Z" fill="black"/>
<path d="M20.893 57.9618L20.0014 57.7228C19.266 57.5236 18.6394 57.0414 18.2585 56.3816C17.8775 55.7218 17.7731 54.9381 17.9682 54.2016C18.1674 53.4662 18.6496 52.8396 19.3094 52.4587C19.9692 52.0777 20.7529 51.9733 21.4894 52.1684L22.3811 52.4073C23.1164 52.6066 23.743 53.0887 24.124 53.7485C24.505 54.4083 24.6093 55.1921 24.4143 55.9286C24.215 56.6639 23.7329 57.2905 23.0731 57.6715C22.4133 58.0525 21.6295 58.1568 20.893 57.9618Z" fill="#EDEDF4"/>
<path d="M75.4287 67.8646C75.4287 67.8646 89.8394 75.6414 100.767 70.5454C111.695 65.45 115 49.412 115 49.412C115 49.412 100.59 41.6352 89.662 46.7313C78.7343 51.8273 75.4287 67.8646 75.4287 67.8646Z" fill="#EEDD55"/>
<path d="M97.0883 45.0227C94.5701 45.1263 92.0324 45.6249 89.6592 46.7315C84.9394 48.9325 81.6442 53.1738 79.4205 57.2836C79.377 57.7341 79.3549 58.1864 79.3545 58.6389C79.3545 64.9724 83.533 70.33 89.283 72.1062C93.0529 72.5122 97.1039 72.2532 100.764 70.5463C101.066 70.4058 101.359 70.2536 101.649 70.0969C105.215 67.5398 107.541 63.362 107.541 58.6389C107.541 52.1144 103.106 46.6279 97.0883 45.0227Z" fill="#CCAA33"/>
<path d="M94.5698 65.0744C96.0256 63.2536 97.0781 61.1445 97.6579 58.8866C98.9043 54.091 97.8327 49.0759 95.0677 45.1959C93.2249 45.4381 91.3982 45.9205 89.6596 46.7312C87.4975 47.7394 85.6378 49.1795 84.0391 50.8359C86.0933 52.3229 87.7772 54.2633 88.9601 56.5065C90.143 58.7496 90.7932 61.2352 90.8601 63.7702C90.9106 65.7303 93.344 66.6045 94.5698 65.0744Z" fill="black"/>
<path d="M88.1769 58.5404L89.0686 58.3015C89.8039 58.1022 90.4305 57.62 90.8115 56.9602C91.1925 56.3004 91.2968 55.5167 91.1018 54.7802C90.9025 54.0449 90.4204 53.4182 89.7606 53.0373C89.1008 52.6563 88.317 52.5519 87.5805 52.747L86.6889 52.9859C85.9535 53.1852 85.3269 53.6674 84.946 54.3271C84.565 54.9869 84.4606 55.7707 84.6557 56.5072C84.8549 57.2425 85.3371 57.8691 85.9969 58.2501C86.6567 58.6311 87.4404 58.7354 88.1769 58.5404Z" fill="#EDEDF4"/>
</svg>
