<svg width="32" height="32" viewBox="0 0 32 32" fill="none" xmlns="http://www.w3.org/2000/svg">
<rect width="32" height="32" rx="16" fill="url(#paint0_diamond_44_19)"/>
<path d="M10.031 14.1168C11.6624 14.1168 12.9848 12.7943 12.9848 11.163C12.9848 9.53159 11.6624 8.20911 10.031 8.20911C8.39963 8.20911 7.07715 9.53159 7.07715 11.163C7.07715 12.7943 8.39963 14.1168 10.031 14.1168Z" fill="#111111"/>
<path d="M21.9685 14.1168C23.5999 14.1168 24.9223 12.7943 24.9223 11.163C24.9223 9.53159 23.5999 8.20911 21.9685 8.20911C20.3371 8.20911 19.0146 9.53159 19.0146 11.163C19.0146 12.7943 20.3371 14.1168 21.9685 14.1168Z" fill="#111111"/>
<g clip-path="url(#clip0_44_19)">
<path fill-rule="evenodd" clip-rule="evenodd" d="M18.3622 16.581C18.3622 16.1419 17.3038 15.7863 15.9997 15.7863C14.6957 15.7863 13.6373 16.1443 13.6373 16.581C13.6373 16.9533 14.3909 17.8292 15.4091 18.0966V19.1181L13.2191 21.3305C13.1082 21.4425 13.0459 21.5945 13.0459 21.7529C13.0459 21.9114 13.1082 22.0633 13.2191 22.1754C13.33 22.2874 13.4804 22.3504 13.6373 22.3504C13.7941 22.3504 13.9445 22.2874 14.0554 22.1754L15.9997 20.2111L17.9441 22.1754C18.055 22.2874 18.2054 22.3504 18.3622 22.3504C18.5191 22.3504 18.6695 22.2874 18.7804 22.1754C18.8913 22.0633 18.9536 21.9114 18.9536 21.7529C18.9536 21.5945 18.8913 21.4425 18.7804 21.3305L16.5904 19.1181V18.0966C17.6086 17.8292 18.3622 16.951 18.3622 16.581Z" fill="#111111"/>
<path d="M10.1341 16.0304C9.62548 15.8947 9.083 15.8269 8.54051 15.8269C7.99802 15.793 7.48944 15.8269 6.94696 15.9286C6.43838 15.9965 5.89589 16.1321 5.38731 16.3016C4.37015 16.6407 3.4547 17.1492 2.60707 17.7934C2.2002 18.0986 1.79334 18.4715 1.45428 18.8445C1.28475 19.014 1.52209 19.2853 1.72553 19.1497C2.13239 18.8445 2.57316 18.5733 3.01393 18.3359C3.86157 17.8273 4.77701 17.4205 5.69246 17.1153C6.16713 16.9458 6.64181 16.8441 7.11648 16.7424C7.59116 16.6407 8.09974 16.5728 8.57442 16.5389C9.083 16.505 9.59158 16.4711 10.1002 16.505C10.3375 16.4372 10.4053 16.0643 10.1341 16.0304ZM9.79501 18.5733C9.18471 18.6411 8.57441 18.7767 7.96412 18.9801C7.38773 19.1836 6.81133 19.4209 6.26885 19.726C5.72636 20.0312 5.21778 20.3702 4.74311 20.7432C3.79375 21.523 2.94612 22.4046 2.23411 23.4217C1.89505 23.9303 1.556 24.4389 1.25085 24.9814C1.14913 25.1848 1.45428 25.3882 1.5899 25.1848C1.96286 24.7101 2.33582 24.2694 2.74269 23.8286C3.52251 22.9471 4.37015 22.1333 5.25169 21.4213C5.69246 21.0484 6.16713 20.7432 6.67571 20.4042C7.15039 20.099 7.65897 19.8278 8.20146 19.5904C8.74394 19.3531 9.28643 19.1497 9.86282 18.9801C10.1002 18.9123 10.0663 18.5733 9.79501 18.5733ZM21.8653 16.0304C22.3739 15.8947 22.9164 15.8269 23.4589 15.8269C24.0014 15.793 24.51 15.8269 25.0524 15.9286C25.561 15.9965 26.1035 16.1321 26.6121 16.3016C27.6293 16.6407 28.5447 17.1492 29.3923 17.7934C29.7992 18.0986 30.2061 18.4715 30.5451 18.8445C30.7146 19.014 30.4773 19.2853 30.2739 19.1497C29.867 18.8445 29.4262 18.5733 28.9855 18.3359C28.1378 17.8273 27.2224 17.4205 26.3069 17.1153C25.8323 16.9458 25.3576 16.8441 24.8829 16.7424C24.4082 16.6407 23.8997 16.5728 23.425 16.5389C22.9164 16.505 22.4078 16.4711 21.8992 16.505C21.6619 16.4372 21.5941 16.0643 21.8653 16.0304ZM22.2044 18.5733C22.8147 18.6411 23.425 18.7767 24.0353 18.9801C24.6117 19.1836 25.1881 19.4209 25.7305 19.726C26.273 20.0312 26.7816 20.3702 27.2563 20.7432C28.2056 21.523 29.0533 22.4046 29.7653 23.4217C30.1043 23.9303 30.4434 24.4389 30.7485 24.9814C30.8503 25.1848 30.5451 25.3882 30.4095 25.1848C30.0365 24.7101 29.6636 24.2694 29.2567 23.8286C28.4769 22.9471 27.6292 22.1333 26.7477 21.4213C26.3069 21.0484 25.8323 20.7432 25.3237 20.4042C24.8151 20.099 24.3065 19.8278 23.7979 19.5904C23.2555 19.3531 22.713 19.1497 22.1366 18.9801C21.8992 18.9123 21.9331 18.5733 22.2044 18.5733Z" fill="#111111"/>
<path d="M12.5868 10.3265C12.5868 10.5988 12.5149 10.8662 12.3782 11.1017C12.2422 11.3388 12.0459 11.5358 11.8093 11.6728C11.5728 11.8098 11.3042 11.8819 11.0309 11.8819C10.6183 11.8819 10.2227 11.7181 9.93095 11.4264C9.63921 11.1347 9.47528 10.7391 9.47522 10.3265C9.4754 10.0037 9.57603 9.68893 9.76317 9.42588C9.95031 9.16283 10.2147 8.96453 10.5196 8.8585C10.6839 8.80076 10.8567 8.77113 11.0309 8.77087C11.4435 8.77087 11.8392 8.93476 12.131 9.2265C12.4227 9.51823 12.5867 9.91392 12.5868 10.3265ZM8.07156 12.5335C8.09622 12.3797 8.17484 12.2397 8.29333 12.1386C8.41182 12.0375 8.56244 11.9819 8.7182 11.9818C8.80452 11.9818 8.88999 11.9988 8.96974 12.0318C9.04949 12.0649 9.12194 12.1133 9.18297 12.1744C9.24399 12.2354 9.2924 12.3079 9.32541 12.3876C9.35842 12.4674 9.37539 12.5529 9.37536 12.6392C9.37536 12.9383 9.17442 13.1874 8.90103 13.2672C8.84176 13.2855 8.7802 13.2952 8.7182 13.2961C8.54391 13.2961 8.37676 13.2269 8.25351 13.1036C8.13027 12.9804 8.06104 12.8132 8.06104 12.639C8.06104 12.603 8.06617 12.5682 8.07156 12.5335Z" fill="white"/>
</g>
<path d="M24.4027 10.3266C24.4027 10.5989 24.3308 10.8663 24.1942 11.1018C24.0581 11.3389 23.8618 11.5359 23.6253 11.6729C23.3887 11.8099 23.1202 11.882 22.8468 11.8821C22.4342 11.8821 22.0386 11.7182 21.7469 11.4265C21.4551 11.1348 21.2912 10.7392 21.2911 10.3266C21.2913 10.0038 21.392 9.68905 21.5791 9.426C21.7662 9.16295 22.0306 8.96465 22.3355 8.85862C22.4998 8.80088 22.6726 8.77126 22.8468 8.771C23.2594 8.771 23.6551 8.93489 23.9469 9.22662C24.2387 9.51836 24.4026 9.91404 24.4027 10.3266ZM19.8875 12.5336C19.9121 12.3798 19.9908 12.2398 20.1092 12.1387C20.2277 12.0376 20.3784 11.982 20.5341 11.9819C20.6204 11.9819 20.7059 11.9989 20.7857 12.032C20.8654 12.065 20.9379 12.1134 20.9989 12.1745C21.0599 12.2355 21.1083 12.308 21.1413 12.3878C21.1743 12.4675 21.1913 12.553 21.1913 12.6393C21.1913 12.9384 20.9903 13.1876 20.7169 13.2674C20.6577 13.2856 20.5961 13.2953 20.5341 13.2962C20.3598 13.2962 20.1927 13.227 20.0694 13.1038C19.9462 12.9805 19.877 12.8134 19.877 12.6391C19.877 12.6031 19.8821 12.5683 19.8875 12.5336Z" fill="white"/>
<defs>
<radialGradient id="paint0_diamond_44_19" cx="0" cy="0" r="1" gradientUnits="userSpaceOnUse" gradientTransform="translate(16 16) rotate(90) scale(16)">
<stop stop-color="#CCAA33"/>
<stop offset="1" stop-color="#EEDD55"/>
</radialGradient>
<clipPath id="clip0_44_19">
<rect width="29.5385" height="28.5353" fill="white" transform="translate(1.23047 2.30933)"/>
</clipPath>
</defs>
</svg>
