<svg width="32" height="57" viewBox="0 0 32 57" fill="none" xmlns="http://www.w3.org/2000/svg">
<g filter="url(#filter0_i_73_39)">
<path d="M31.8714 39.8966C32.4064 44.8645 31.2599 49.0682 28.6613 51.8961C25.9098 54.9533 21.4769 56.5583 15.8975 56.5583C5.96155 56.5583 0 49.4503 0 42.5716C0 39.2087 1.37574 36.075 3.97437 33.7057C6.573 31.2599 10.0124 30.0371 13.0696 30.2664C13.3753 30.3428 13.6046 30.5721 13.6046 30.8778C13.6046 31.1835 13.2989 31.4128 12.9931 31.4128C10.1652 31.1835 7.10801 32.33 4.73867 34.5464C2.36934 36.6865 1.07002 39.5144 1.07002 42.5716C1.07002 48.9153 6.64943 55.4883 15.8975 55.4883C21.1712 55.4883 25.2984 53.9597 27.8206 51.2082C30.1899 48.5332 31.1835 44.7117 30.7249 40.0494C29.8078 31.1071 22.0883 28.8142 14.5982 26.5977C7.3373 24.4577 0.535011 22.4705 0.535011 14.6746C0.535011 8.02517 4.96796 5.88512 6.19085 5.42654L7.71945 0.382151C7.79588 0.152858 7.94874 0 8.25446 0C8.48375 0 8.71304 0.152858 8.78947 0.382151L10.0124 5.5794C14.0632 3.13363 18.649 4.8151 20.254 5.50297L22.0883 1.45217C22.1648 1.22288 22.394 1.07002 22.6998 1.14645C22.9291 1.14645 23.1583 1.37574 23.1583 1.60503L23.6934 7.03158C24.5341 7.10801 26.3684 7.64302 28.5085 9.70663C28.7377 9.93592 28.8142 10.2416 28.5849 10.4709C28.3556 10.7002 27.9735 10.7002 27.7442 10.5474C25.222 8.1016 23.1583 8.1016 23.1583 8.1016C22.8526 8.1016 22.6233 7.87231 22.5469 7.56659L22.2412 3.89794L21.0183 6.57299C20.9419 6.64942 20.8654 6.80229 20.7126 6.87871C20.5597 6.87871 20.4069 6.87871 20.254 6.80229C20.1776 6.80229 14.4453 3.74508 10.0124 6.95514C9.8595 7.03158 9.6302 7.10801 9.47734 7.03158C9.24805 6.95514 9.17162 6.80229 9.09519 6.64942L8.17803 2.67505L7.18444 6.03798C7.10801 6.19084 6.95515 6.34371 6.80229 6.42013C6.573 6.42013 1.68146 7.87231 1.68146 14.6746C1.68146 21.6297 7.79588 23.4641 14.9039 25.5277C22.394 27.7442 30.8778 30.2664 31.8714 39.8966Z" fill="url(#paint0_diamond_73_39)"/>
</g>
<path d="M12.1926 15.4044C12.1926 15.4044 9.57292 16.8181 7.58643 15.8917C5.59994 14.9653 4.99902 12.05 4.99902 12.05C4.99902 12.05 7.61868 10.6363 9.60518 11.5626C11.5917 12.489 12.1926 15.4044 12.1926 15.4044Z" fill="#EEDD55"/>
<path d="M11.4785 13.7273C11.4785 13.6442 11.4741 13.562 11.4664 13.4809C11.0622 12.7339 10.4632 11.9628 9.6052 11.5627C9.17379 11.3615 8.71248 11.2709 8.2547 11.2521C7.16058 11.5439 6.35449 12.5412 6.35449 13.7273C6.35449 14.5859 6.77731 15.3454 7.42566 15.8102C7.47845 15.839 7.53207 15.8662 7.58646 15.8919C8.25199 16.2022 8.98828 16.2493 9.67359 16.1755C10.719 15.8526 11.4785 14.8786 11.4785 13.7273Z" fill="#CCAA33"/>
<path d="M9.6053 11.5627C9.28925 11.4153 8.95719 11.3276 8.62218 11.2836C8.11955 11.9889 7.92474 12.9007 8.15134 13.7723C8.25681 14.1828 8.44819 14.5662 8.71282 14.8972C8.93576 15.1753 9.378 15.0164 9.38718 14.6601C9.39935 14.1993 9.51754 13.7474 9.73258 13.3397C9.94762 12.9319 10.2537 12.5792 10.6272 12.3088C10.3363 12.0077 9.99834 11.7459 9.6053 11.5627Z" fill="black"/>
<path d="M7.88852 13.6042L7.72644 13.5608C7.59276 13.5245 7.47885 13.4369 7.4096 13.3169C7.34034 13.197 7.32137 13.0545 7.35682 12.9207C7.39305 12.787 7.4807 12.6731 7.60064 12.6038C7.72058 12.5346 7.86305 12.5156 7.99694 12.551L8.15903 12.5945C8.2927 12.6307 8.40661 12.7184 8.47587 12.8383C8.54512 12.9582 8.56409 13.1007 8.52864 13.2346C8.49242 13.3683 8.40476 13.4822 8.28482 13.5514C8.16488 13.6207 8.02241 13.6397 7.88852 13.6042Z" fill="#EDEDF4"/>
<path d="M16.5522 15.4044C16.5522 15.4044 19.1719 16.8181 21.1584 15.8917C23.1449 14.9654 23.7458 12.05 23.7458 12.05C23.7458 12.05 21.1261 10.6363 19.1397 11.5626C17.1532 12.489 16.5522 15.4044 16.5522 15.4044Z" fill="#EEDD55"/>
<path d="M20.4894 11.2521C20.0316 11.2709 19.5703 11.3615 19.1389 11.5627C18.2809 11.9628 17.6819 12.7338 17.2776 13.4809C17.2697 13.5628 17.2657 13.645 17.2656 13.7273C17.2656 14.8786 18.0252 15.8526 19.0705 16.1755C19.7558 16.2493 20.4922 16.2022 21.1576 15.8919C21.2125 15.8664 21.2658 15.8387 21.3184 15.8102C21.9668 15.3454 22.3896 14.5859 22.3896 13.7273C22.3895 12.5412 21.5834 11.5439 20.4894 11.2521Z" fill="#CCAA33"/>
<path d="M20.032 14.8972C20.2966 14.5662 20.488 14.1828 20.5934 13.7723C20.82 12.9006 20.6252 11.9889 20.1225 11.2836C19.7875 11.3276 19.4555 11.4153 19.1394 11.5627C18.7464 11.7459 18.4083 12.0077 18.1177 12.3088C18.4911 12.5792 18.7972 12.9319 19.0122 13.3397C19.2273 13.7474 19.3455 14.1993 19.3576 14.6601C19.3668 15.0164 19.8092 15.1753 20.032 14.8972Z" fill="black"/>
<path d="M18.8695 13.7095L19.0316 13.6661C19.1653 13.6299 19.2792 13.5422 19.3484 13.4223C19.4177 13.3024 19.4367 13.1599 19.4012 13.026C19.365 12.8923 19.2773 12.7784 19.1574 12.7092C19.0374 12.6399 18.895 12.6209 18.7611 12.6564L18.599 12.6998C18.4653 12.736 18.3514 12.8237 18.2822 12.9436C18.2129 13.0636 18.1939 13.2061 18.2294 13.3399C18.2656 13.4736 18.3533 13.5875 18.4732 13.6568C18.5931 13.726 18.7356 13.745 18.8695 13.7095Z" fill="#EDEDF4"/>
<defs>
<filter id="filter0_i_73_39" x="0" y="0" width="32" height="56.5583" filterUnits="userSpaceOnUse" color-interpolation-filters="sRGB">
<feFlood flood-opacity="0" result="BackgroundImageFix"/>
<feBlend mode="normal" in="SourceGraphic" in2="BackgroundImageFix" result="shape"/>
<feColorMatrix in="SourceAlpha" type="matrix" values="0 0 0 0 0 0 0 0 0 0 0 0 0 0 0 0 0 0 127 0" result="hardAlpha"/>
<feOffset/>
<feGaussianBlur stdDeviation="0.5"/>
<feComposite in2="hardAlpha" operator="arithmetic" k2="-1" k3="1"/>
<feColorMatrix type="matrix" values="0 0 0 0 0 0 0 0 0 0 0 0 0 0 0 0 0 0 0.25 0"/>
<feBlend mode="normal" in2="shape" result="effect1_innerShadow_73_39"/>
</filter>
<radialGradient id="paint0_diamond_73_39" cx="0" cy="0" r="1" gradientUnits="userSpaceOnUse" gradientTransform="translate(16 28.2792) rotate(90) scale(28.2792 16)">
<stop stop-color="#EEDD55"/>
<stop offset="1" stop-color="#CCAA33"/>
</radialGradient>
</defs>
</svg>
