<svg width="32" height="32" viewBox="0 0 32 32" fill="none" xmlns="http://www.w3.org/2000/svg">
<rect width="32" height="32" rx="16" fill="url(#paint0_diamond_44_19)"/>
<path d="M10.031 14.1167C11.6624 14.1167 12.9848 12.7942 12.9848 11.1628C12.9848 9.53147 11.6624 8.20898 10.031 8.20898C8.39963 8.20898 7.07715 9.53147 7.07715 11.1628C7.07715 12.7942 8.39963 14.1167 10.031 14.1167Z" fill="#111111"/>
<path d="M21.9687 14.1167C23.6001 14.1167 24.9226 12.7942 24.9226 11.1628C24.9226 9.53147 23.6001 8.20898 21.9687 8.20898C20.3374 8.20898 19.0149 9.53147 19.0149 11.1628C19.0149 12.7942 20.3374 14.1167 21.9687 14.1167Z" fill="#111111"/>
<g clip-path="url(#clip0_44_19)">
<path fill-rule="evenodd" clip-rule="evenodd" d="M18.3625 16.5809C18.3625 16.1418 17.3041 15.7861 16 15.7861C14.6959 15.7861 13.6375 16.1441 13.6375 16.5809C13.6375 16.9532 14.3911 17.8291 15.4094 18.0964V19.1179L13.2193 21.3304C13.1084 21.4424 13.0461 21.5944 13.0461 21.7528C13.0461 21.9113 13.1084 22.0632 13.2193 22.1753C13.3303 22.2873 13.4807 22.3502 13.6375 22.3502C13.7943 22.3502 13.9448 22.2873 14.0557 22.1753L16 20.211L17.9443 22.1753C18.0552 22.2873 18.2056 22.3502 18.3625 22.3502C18.5193 22.3502 18.6697 22.2873 18.7806 22.1753C18.8915 22.0632 18.9538 21.9113 18.9538 21.7528C18.9538 21.5944 18.8915 21.4424 18.7806 21.3304L16.5906 19.1179V18.0964C17.6088 17.8291 18.3625 16.9508 18.3625 16.5809Z" fill="#111111"/>
<path d="M10.1343 16.0302C9.62573 15.8946 9.08324 15.8268 8.54075 15.8268C7.99827 15.7929 7.48969 15.8268 6.9472 15.9285C6.43862 15.9963 5.89613 16.1319 5.38755 16.3015C4.37039 16.6405 3.45494 17.1491 2.60731 17.7933C2.20044 18.0985 1.79358 18.4714 1.45453 18.8444C1.285 19.0139 1.52234 19.2852 1.72577 19.1495C2.13263 18.8444 2.5734 18.5731 3.01417 18.3358C3.86181 17.8272 4.77725 17.4204 5.6927 17.1152C6.16738 16.9457 6.64205 16.844 7.11673 16.7422C7.5914 16.6405 8.09998 16.5727 8.57466 16.5388C9.08324 16.5049 9.59182 16.471 10.1004 16.5049C10.3377 16.4371 10.4056 16.0641 10.1343 16.0302ZM9.79525 18.5731C9.18496 18.6409 8.57466 18.7766 7.96436 18.98C7.38797 19.1834 6.81158 19.4208 6.26909 19.7259C5.72661 20.0311 5.21802 20.3701 4.74335 20.7431C3.794 21.5229 2.94636 22.4045 2.23435 23.4216C1.8953 23.9302 1.55624 24.4388 1.25109 24.9813C1.14938 25.1847 1.45453 25.3881 1.59015 25.1847C1.96311 24.71 2.33607 24.2692 2.74293 23.8285C3.52276 22.9469 4.37039 22.1332 5.25193 21.4212C5.6927 21.0482 6.16738 20.7431 6.67596 20.404C7.15063 20.0989 7.65921 19.8276 8.2017 19.5903C8.74419 19.353 9.28667 19.1495 9.86306 18.98C10.1004 18.9122 10.0665 18.5731 9.79525 18.5731ZM21.8656 16.0302C22.3742 15.8946 22.9166 15.8268 23.4591 15.8268C24.0016 15.7929 24.5102 15.8268 25.0527 15.9285C25.5613 15.9963 26.1038 16.1319 26.6123 16.3015C27.6295 16.6405 28.5449 17.1491 29.3926 17.7933C29.7994 18.0985 30.2063 18.4714 30.5454 18.8444C30.7149 19.0139 30.4775 19.2852 30.2741 19.1495C29.8672 18.8444 29.4265 18.5731 28.9857 18.3358C28.1381 17.8272 27.2226 17.4204 26.3072 17.1152C25.8325 16.9457 25.3578 16.844 24.8832 16.7422C24.4085 16.6405 23.8999 16.5727 23.4252 16.5388C22.9166 16.5049 22.4081 16.471 21.8995 16.5049C21.6621 16.4371 21.5943 16.0641 21.8656 16.0302ZM22.2046 18.5731C22.8149 18.6409 23.4252 18.7766 24.0355 18.98C24.6119 19.1834 25.1883 19.4208 25.7308 19.7259C26.2733 20.0311 26.7819 20.3701 27.2565 20.7431C28.2059 21.5229 29.0535 22.4045 29.7655 23.4216C30.1046 23.9302 30.4436 24.4388 30.7488 24.9813C30.8505 25.1847 30.5454 25.3881 30.4097 25.1847C30.0368 24.71 29.6638 24.2692 29.257 23.8285C28.4771 22.9469 27.6295 22.1332 26.748 21.4212C26.3072 21.0482 25.8325 20.7431 25.3239 20.404C24.8153 20.0989 24.3068 19.8276 23.7982 19.5903C23.2557 19.353 22.7132 19.1495 22.1368 18.98C21.8995 18.9122 21.9334 18.5731 22.2046 18.5731Z" fill="#111111"/>
<path d="M12.5873 10.3264C12.5873 10.5986 12.5154 10.8661 12.3787 11.1015C12.2426 11.3386 12.0464 11.5356 11.8098 11.6726C11.5733 11.8096 11.3047 11.8818 11.0314 11.8818C10.6188 11.8818 10.2232 11.7179 9.93143 11.4263C9.6397 11.1346 9.47577 10.7389 9.47571 10.3264C9.47588 10.0036 9.57652 9.68881 9.76366 9.42576C9.95079 9.1627 10.2152 8.96441 10.5201 8.85837C10.6844 8.80063 10.8572 8.77101 11.0314 8.77075C11.444 8.77075 11.8397 8.93464 12.1315 9.22638C12.4232 9.51811 12.5872 9.9138 12.5873 10.3264ZM8.07205 12.5333C8.09671 12.3796 8.17533 12.2396 8.29382 12.1385C8.41231 12.0374 8.56293 11.9818 8.71869 11.9817C8.80501 11.9817 8.89048 11.9987 8.97023 12.0317C9.04997 12.0648 9.12243 12.1132 9.18346 12.1742C9.24448 12.2353 9.29288 12.3078 9.3259 12.3875C9.35891 12.4673 9.37588 12.5528 9.37585 12.6391C9.37585 12.9382 9.17491 13.1873 8.90152 13.2671C8.84225 13.2853 8.78069 13.2951 8.71869 13.296C8.5444 13.296 8.37724 13.2268 8.254 13.1035C8.13076 12.9803 8.06152 12.8131 8.06152 12.6388C8.06152 12.6029 8.06666 12.5681 8.07205 12.5333Z" fill="white"/>
</g>
<path d="M24.4024 10.3265C24.4025 10.5988 24.3305 10.8662 24.1939 11.1017C24.0578 11.3388 23.8616 11.5358 23.625 11.6728C23.3885 11.8098 23.1199 11.8819 22.8465 11.8819C22.434 11.8819 22.0384 11.7181 21.7466 11.4264C21.4549 11.1347 21.291 10.7391 21.2909 10.3265C21.2911 10.0037 21.3917 9.68893 21.5788 9.42588C21.766 9.16283 22.0303 8.96453 22.3353 8.8585C22.4995 8.80076 22.6724 8.77113 22.8465 8.77087C23.2592 8.77087 23.6549 8.93476 23.9466 9.2265C24.2384 9.51823 24.4024 9.91392 24.4024 10.3265ZM19.8872 12.5335C19.9119 12.3797 19.9905 12.2397 20.109 12.1386C20.2275 12.0375 20.3781 11.9819 20.5339 11.9818C20.6202 11.9818 20.7057 11.9988 20.7854 12.0318C20.8652 12.0649 20.9376 12.1133 20.9986 12.1744C21.0597 12.2354 21.1081 12.3079 21.1411 12.3876C21.1741 12.4674 21.1911 12.5529 21.191 12.6392C21.191 12.9383 20.9901 13.1874 20.7167 13.2672C20.6574 13.2855 20.5959 13.2952 20.5339 13.2961C20.3596 13.2961 20.1924 13.2269 20.0692 13.1036C19.9459 12.9804 19.8767 12.8132 19.8767 12.639C19.8767 12.603 19.8818 12.5682 19.8872 12.5335Z" fill="white"/>
<defs>
<radialGradient id="paint0_diamond_44_19" cx="0" cy="0" r="1" gradientUnits="userSpaceOnUse" gradientTransform="translate(16 16) rotate(90) scale(16)">
<stop stop-color="#EEDD55"/>
<stop offset="1" stop-color="#CCAA33"/>
</radialGradient>
<clipPath id="clip0_44_19">
<rect width="29.5385" height="28.5353" fill="white" transform="translate(1.23071 2.3092)"/>
</clipPath>
</defs>
</svg>
