<svg width="193" height="55" viewBox="0 0 193 55" fill="none" xmlns="http://www.w3.org/2000/svg">
  <path d="M9.75588 12.3258C9.75588 12.3258 7.65978 13.4569 6.0703 12.7157C4.48082 11.9744 4 9.64175 4 9.64175C4 9.64175 6.09611 8.51058 7.68558 9.25182C9.27506 9.99306 9.75588 12.3258 9.75588 12.3258Z" fill="#EEDD55" />
  <path d="M9.18438 10.9838C9.18438 10.9173 9.1809 10.8516 9.17477 10.7867C8.85134 10.189 8.37203 9.57199 7.68551 9.25185C7.34032 9.09089 6.9712 9.01837 6.60491 9.0033C5.72946 9.23678 5.08447 10.0348 5.08447 10.9838C5.08447 11.6708 5.42279 12.2785 5.94156 12.6505C5.9838 12.6735 6.0267 12.6953 6.07022 12.7158C6.60275 12.9641 7.19188 13.0018 7.74023 12.9427C8.57669 12.6844 9.18438 11.9051 9.18438 10.9838Z" fill="#CCAA33" />
  <path d="M7.68564 9.25176C7.43275 9.13384 7.16705 9.06367 6.899 9.02844C6.49682 9.5928 6.34095 10.3224 6.52225 11.0198C6.60665 11.3482 6.75978 11.655 6.97152 11.9199C7.14991 12.1424 7.50376 12.0153 7.51111 11.7302C7.52084 11.3614 7.61541 10.9999 7.78748 10.6736C7.95954 10.3473 8.20447 10.0651 8.50326 9.8488C8.27053 9.60787 8.00012 9.3984 7.68564 9.25176Z" fill="black" />
  <path d="M6.31197 10.8853L6.18228 10.8506C6.07532 10.8216 5.98418 10.7515 5.92876 10.6555C5.87335 10.5595 5.85817 10.4455 5.88654 10.3384C5.91552 10.2314 5.98566 10.1403 6.08162 10.0849C6.17759 10.0295 6.29159 10.0143 6.39872 10.0427L6.52841 10.0774C6.63537 10.1064 6.72652 10.1765 6.78193 10.2725C6.83735 10.3685 6.85253 10.4825 6.82416 10.5896C6.79517 10.6966 6.72504 10.7877 6.62907 10.8431C6.5331 10.8985 6.4191 10.9137 6.31197 10.8853Z" fill="#EDEDF4" />
  <path d="M13.2441 12.3258C13.2441 12.3258 15.3402 13.4569 16.9297 12.7157C18.5192 11.9745 19 9.64175 19 9.64175C19 9.64175 16.9039 8.51058 15.3144 9.25182C13.725 9.99306 13.2441 12.3258 13.2441 12.3258Z" fill="#EEDD55" />
  <path d="M16.3944 9.0033C16.0281 9.01837 15.659 9.09089 15.3138 9.25185C14.6273 9.57199 14.148 10.1889 13.8245 10.7867C13.8182 10.8522 13.815 10.918 13.8149 10.9838C13.8149 11.9051 14.4227 12.6844 15.2591 12.9427C15.8074 13.0018 16.3967 12.9641 16.9291 12.7158C16.973 12.6954 17.0157 12.6732 17.0578 12.6505C17.5765 12.2785 17.9149 11.6708 17.9149 10.9838C17.9148 10.0348 17.2698 9.23678 16.3944 9.0033Z" fill="#CCAA33" />
  <path d="M16.0283 11.9199C16.2401 11.655 16.3932 11.3482 16.4775 11.0198C16.6588 10.3223 16.5029 9.5928 16.1008 9.02844C15.8327 9.06367 15.567 9.13384 15.3141 9.25176C14.9996 9.3984 14.7291 9.60787 14.4966 9.8488C14.7954 10.0651 15.0403 10.3473 15.2124 10.6736C15.3844 10.9999 15.479 11.3614 15.4887 11.7302C15.4961 12.0153 15.85 12.1424 16.0283 11.9199Z" fill="black" />
  <path d="M15.0984 10.9696L15.2281 10.9348C15.3351 10.9058 15.4262 10.8357 15.4816 10.7397C15.5371 10.6438 15.5522 10.5298 15.5239 10.4226C15.4949 10.3157 15.4247 10.2245 15.3288 10.1691C15.2328 10.1137 15.1188 10.0985 15.0117 10.1269L14.882 10.1616C14.775 10.1906 14.6839 10.2608 14.6285 10.3567C14.5731 10.4527 14.5579 10.5667 14.5862 10.6738C14.6152 10.7808 14.6854 10.8719 14.7813 10.9273C14.8773 10.9828 14.9913 10.9979 15.0984 10.9696Z" fill="#EDEDF4" />
  <g filter="url(#filter0_i_96_30)">
    <path d="M26.2642 32.484C26.6982 36.514 25.7682 39.924 23.6602 42.218C21.4282 44.698 17.8322 46 13.3062 46C5.24616 46 0.410156 40.234 0.410156 34.654C0.410156 31.926 1.52616 29.384 3.63416 27.462C5.74216 25.478 8.53216 24.486 11.0122 24.672C11.2602 24.734 11.4462 24.92 11.4462 25.168C11.4462 25.416 11.1982 25.602 10.9502 25.602C8.65616 25.416 6.17616 26.346 4.25416 28.144C2.33216 29.88 1.27816 32.174 1.27816 34.654C1.27816 39.8 5.80416 45.132 13.3062 45.132C17.5842 45.132 20.9322 43.892 22.9782 41.66C24.9002 39.49 25.7062 36.39 25.3342 32.608C24.5902 25.354 18.3282 23.494 12.2522 21.696C6.36216 19.96 0.844156 18.348 0.844156 12.024C0.844156 6.62999 4.44016 4.89399 5.43216 4.52199L6.67216 0.429995C6.73416 0.243994 6.85816 0.119995 7.10616 0.119995C7.29216 0.119995 7.47816 0.243994 7.54016 0.429995L8.53216 4.64599C11.8182 2.66199 15.5382 4.02599 16.8402 4.58399L18.3282 1.29799C18.3902 1.11199 18.5762 0.987995 18.8242 1.04999C19.0102 1.04999 19.1962 1.23599 19.1962 1.42199L19.6302 5.824C20.3122 5.88599 21.8002 6.31999 23.5362 7.99399C23.7222 8.18 23.7842 8.428 23.5982 8.61399C23.4122 8.79999 23.1022 8.79999 22.9162 8.67599C20.8702 6.692 19.1962 6.692 19.1962 6.692C18.9482 6.692 18.7622 6.50599 18.7002 6.25799L18.4522 3.282L17.4602 5.45199C17.3982 5.51399 17.3362 5.63799 17.2122 5.69999C17.0882 5.69999 16.9642 5.69999 16.8402 5.63799C16.7782 5.63799 12.1282 3.15799 8.53216 5.76199C8.40816 5.824 8.22216 5.88599 8.09816 5.824C7.91216 5.76199 7.85016 5.63799 7.78816 5.51399L7.04416 2.28999L6.23816 5.01799C6.17616 5.14199 6.05216 5.266 5.92816 5.32799C5.74216 5.32799 1.77416 6.50599 1.77416 12.024C1.77416 17.666 6.73416 19.154 12.5002 20.828C18.5762 22.626 25.4582 24.672 26.2642 32.484Z" fill="url(#paint0_diamond_96_30)" />
    <path d="M52.5865 25.664C53.7025 27.834 53.7025 30.004 53.7025 30.128V45.504C53.7025 45.752 53.5165 46 53.2685 46C53.0205 46 52.7725 45.752 52.7725 45.504V30.128C52.7725 29.818 52.7105 22.006 44.8365 22.006C37.2105 22.006 34.1105 31.12 34.1105 34.902V45.504C34.1105 45.752 33.9245 46 33.6765 46C33.4285 46 33.2425 45.752 33.2425 45.504V21.572C33.2425 21.324 33.4285 21.138 33.6765 21.138C33.9245 21.138 34.1105 21.324 34.1105 21.572V30.19C35.5365 25.974 38.7605 21.138 44.8365 21.138C49.4245 21.138 51.5945 23.556 52.5865 25.664Z" fill="url(#paint1_diamond_96_30)" />
    <path d="M69.699 21.076C75.899 21.076 79.061 24.3 79.061 30.748V45.504C79.061 45.752 78.875 46 78.627 46C78.379 46 78.131 45.752 78.131 45.504V41.226C76.395 44.326 72.365 46 68.521 46C63.127 46 60.461 43.706 60.461 39.18C60.461 35.026 64.243 32.484 70.691 32.484C76.333 32.484 77.759 29.074 78.007 28.454C77.325 24.114 74.597 21.944 69.699 21.944C63.437 21.944 61.887 25.478 61.825 25.664C61.701 25.85 61.453 25.974 61.205 25.912C60.957 25.788 60.895 25.54 60.957 25.292C61.019 25.106 62.755 21.076 69.699 21.076ZM68.521 45.07C72.241 45.07 78.131 43.024 78.131 37.63V30.748C78.131 30.5 78.131 30.314 78.131 30.128C77.139 31.492 75.031 33.414 70.691 33.414C68.521 33.414 61.329 33.848 61.329 39.18C61.329 43.21 63.623 45.07 68.521 45.07Z" fill="url(#paint2_diamond_96_30)" />
    <path d="M99.5322 21.138C106.476 21.138 112.056 26.718 112.056 33.662C112.056 40.544 106.476 46.124 99.5322 46.124C94.3242 46.124 89.7982 42.9 87.9382 38.312V54.432C87.9382 54.68 87.7522 54.866 87.5042 54.866C87.2562 54.866 87.0702 54.68 87.0702 54.432V21.572C87.0702 21.324 87.2562 21.138 87.5042 21.138C87.7522 21.138 87.9382 21.324 87.9382 21.572V28.95C89.7982 24.362 94.3242 21.138 99.5322 21.138ZM99.5322 45.256C105.98 45.256 111.126 40.048 111.126 33.662C111.126 27.214 105.98 22.006 99.5322 22.006C93.1462 22.006 87.9382 27.214 87.9382 33.662C87.9382 40.048 93.1462 45.256 99.5322 45.256Z" fill="url(#paint3_diamond_96_30)" />
    <path d="M140.429 39.986C140.615 40.11 140.677 40.42 140.553 40.606C138.197 44.078 134.353 46.124 130.137 46.124C123.255 46.124 117.675 40.544 117.675 33.662C117.675 26.718 123.255 21.138 130.137 21.138C134.291 21.138 138.135 23.122 140.491 26.532C140.615 26.78 140.553 27.028 140.367 27.214C140.181 27.338 139.871 27.276 139.747 27.09C137.577 23.928 133.981 22.006 130.137 22.006C123.751 22.006 118.543 27.214 118.543 33.662C118.543 40.048 123.751 45.256 130.137 45.256C134.043 45.256 137.639 43.334 139.747 40.11C139.933 39.924 140.181 39.862 140.429 39.986Z" fill="url(#paint4_diamond_96_30)" />
    <path d="M155.252 21.076C161.452 21.076 164.614 24.3 164.614 30.748V45.504C164.614 45.752 164.428 46 164.18 46C163.932 46 163.684 45.752 163.684 45.504V41.226C161.948 44.326 157.918 46 154.074 46C148.68 46 146.014 43.706 146.014 39.18C146.014 35.026 149.796 32.484 156.244 32.484C161.886 32.484 163.312 29.074 163.56 28.454C162.878 24.114 160.15 21.944 155.252 21.944C148.99 21.944 147.44 25.478 147.378 25.664C147.254 25.85 147.006 25.974 146.758 25.912C146.51 25.788 146.448 25.54 146.51 25.292C146.572 25.106 148.308 21.076 155.252 21.076ZM154.074 45.07C157.794 45.07 163.684 43.024 163.684 37.63V30.748C163.684 30.5 163.684 30.314 163.684 30.128C162.692 31.492 160.584 33.414 156.244 33.414C154.074 33.414 146.882 33.848 146.882 39.18C146.882 43.21 149.176 45.07 154.074 45.07Z" fill="url(#paint5_diamond_96_30)" />
    <path d="M183.039 19.96C183.287 19.96 183.535 20.146 183.535 20.394C183.535 20.642 183.287 20.89 183.039 20.89H173.491V45.38C173.491 45.628 173.243 45.814 172.995 45.814C172.747 45.814 172.561 45.628 172.561 45.38V20.89H169.647C169.399 20.89 169.213 20.642 169.213 20.394C169.213 20.146 169.399 19.96 169.647 19.96H172.561V8.92399C172.561 8.67599 172.747 8.428 172.995 8.428C173.243 8.428 173.491 8.67599 173.491 8.92399V19.96H183.039Z" fill="url(#paint6_diamond_96_30)" />
    <path d="M192.242 19.96C192.49 19.96 192.738 20.146 192.738 20.394C192.738 20.642 192.49 20.89 192.242 20.89H182.694V45.38C182.694 45.628 182.446 45.814 182.198 45.814C181.95 45.814 181.764 45.628 181.764 45.38V20.89H178.85C178.602 20.89 178.416 20.642 178.416 20.394C178.416 20.146 178.602 19.96 178.85 19.96H181.764V8.92399C181.764 8.67599 181.95 8.428 182.198 8.428C182.446 8.428 182.694 8.67599 182.694 8.92399V19.96H192.242Z" fill="url(#paint7_diamond_96_30)" />
  </g>
  <defs>
    <filter id="filter0_i_96_30" x="0.410156" y="0.119995" width="192.328" height="54.746" filterUnits="userSpaceOnUse" color-interpolation-filters="sRGB">
      <feFlood flood-opacity="0" result="BackgroundImageFix" />
      <feBlend mode="normal" in="SourceGraphic" in2="BackgroundImageFix" result="shape" />
      <feColorMatrix in="SourceAlpha" type="matrix" values="0 0 0 0 0 0 0 0 0 0 0 0 0 0 0 0 0 0 127 0" result="hardAlpha" />
      <feOffset />
      <feGaussianBlur stdDeviation="0.5" />
      <feComposite in2="hardAlpha" operator="arithmetic" k2="-1" k3="1" />
      <feColorMatrix type="matrix" values="0 0 0 0 0 0 0 0 0 0 0 0 0 0 0 0 0 0 0.25 0" />
      <feBlend mode="normal" in2="shape" result="effect1_innerShadow_96_30" />
    </filter>
    <radialGradient id="paint0_diamond_96_30" cx="0" cy="0" r="1" gradientUnits="userSpaceOnUse" gradientTransform="translate(96.5741 27.493) rotate(90) scale(27.373 96.1639)">
      <stop stop-color="#EEDD55" />
      <stop offset="1" stop-color="#CCAA33" />
    </radialGradient>
    <radialGradient id="paint1_diamond_96_30" cx="0" cy="0" r="1" gradientUnits="userSpaceOnUse" gradientTransform="translate(96.5741 27.493) rotate(90) scale(27.373 96.1639)">
      <stop stop-color="#EEDD55" />
      <stop offset="1" stop-color="#CCAA33" />
    </radialGradient>
    <radialGradient id="paint2_diamond_96_30" cx="0" cy="0" r="1" gradientUnits="userSpaceOnUse" gradientTransform="translate(96.5741 27.493) rotate(90) scale(27.373 96.1639)">
      <stop stop-color="#EEDD55" />
      <stop offset="1" stop-color="#CCAA33" />
    </radialGradient>
    <radialGradient id="paint3_diamond_96_30" cx="0" cy="0" r="1" gradientUnits="userSpaceOnUse" gradientTransform="translate(96.5741 27.493) rotate(90) scale(27.373 96.1639)">
      <stop stop-color="#EEDD55" />
      <stop offset="1" stop-color="#CCAA33" />
    </radialGradient>
    <radialGradient id="paint4_diamond_96_30" cx="0" cy="0" r="1" gradientUnits="userSpaceOnUse" gradientTransform="translate(96.5741 27.493) rotate(90) scale(27.373 96.1639)">
      <stop stop-color="#EEDD55" />
      <stop offset="1" stop-color="#CCAA33" />
    </radialGradient>
    <radialGradient id="paint5_diamond_96_30" cx="0" cy="0" r="1" gradientUnits="userSpaceOnUse" gradientTransform="translate(96.5741 27.493) rotate(90) scale(27.373 96.1639)">
      <stop stop-color="#EEDD55" />
      <stop offset="1" stop-color="#CCAA33" />
    </radialGradient>
    <radialGradient id="paint6_diamond_96_30" cx="0" cy="0" r="1" gradientUnits="userSpaceOnUse" gradientTransform="translate(96.5741 27.493) rotate(90) scale(27.373 96.1639)">
      <stop stop-color="#EEDD55" />
      <stop offset="1" stop-color="#CCAA33" />
    </radialGradient>
    <radialGradient id="paint7_diamond_96_30" cx="0" cy="0" r="1" gradientUnits="userSpaceOnUse" gradientTransform="translate(96.5741 27.493) rotate(90) scale(27.373 96.1639)">
      <stop stop-color="#EEDD55" />
      <stop offset="1" stop-color="#CCAA33" />
    </radialGradient>
  </defs>
</svg>