<svg width="173" height="54" viewBox="0 0 173 54" fill="none" xmlns="http://www.w3.org/2000/svg">
<g filter="url(#filter0_i_36_12)">
<path d="M25.5017 31.923C25.9298 35.8981 25.0125 39.2616 22.9332 41.5243C20.7316 43.9706 17.1846 45.2548 12.7203 45.2548C4.7701 45.2548 0 39.5674 0 34.0634C0 31.3726 1.10079 28.8652 3.18007 26.9694C5.25934 25.0125 8.01133 24.034 10.4575 24.2174C10.7022 24.2786 10.8856 24.4621 10.8856 24.7067C10.8856 24.9513 10.641 25.1348 10.3964 25.1348C8.13364 24.9513 5.68743 25.8686 3.79162 27.6421C1.89581 29.3545 0.856172 31.6172 0.856172 34.0634C0.856172 39.1393 5.3205 44.3986 12.7203 44.3986C16.94 44.3986 20.2424 43.1755 22.2605 40.974C24.1563 38.8335 24.9513 35.7758 24.5844 32.0453C23.8505 24.8901 17.6738 23.0555 11.6806 21.282C5.87089 19.5696 0.428086 17.9796 0.428086 11.7418C0.428086 6.42129 3.97508 4.70894 4.95357 4.34201L6.17667 0.305775C6.23783 0.122309 6.36014 0 6.60476 0C6.78822 0 6.97169 0.122309 7.03284 0.305775L8.01133 4.46432C11.2525 2.50736 14.9219 3.85277 16.2061 4.40317L17.6738 1.16195C17.735 0.978481 17.9185 0.856172 18.1631 0.917326C18.3465 0.917326 18.53 1.10079 18.53 1.28426L18.9581 5.62627C19.6308 5.68743 21.0985 6.11551 22.8109 7.7667C22.9943 7.95017 23.0555 8.19479 22.872 8.37825C22.6886 8.56172 22.3828 8.56172 22.1993 8.43941C20.1812 6.48245 18.53 6.48245 18.53 6.48245C18.2854 6.48245 18.1019 6.29898 18.0408 6.05436L17.7962 3.11891L16.8177 5.25934C16.7565 5.3205 16.6954 5.44281 16.573 5.50396C16.4507 5.50396 16.3284 5.50396 16.2061 5.44281C16.145 5.44281 11.5583 2.9966 8.01133 5.56512C7.88902 5.62627 7.70555 5.68743 7.58324 5.62627C7.39977 5.56512 7.33862 5.44281 7.27746 5.3205L6.5436 2.14043L5.74858 4.83126C5.68743 4.95357 5.56512 5.07588 5.44281 5.13703C5.25934 5.13703 1.34541 6.29898 1.34541 11.7418C1.34541 17.3069 6.23783 18.7746 11.9253 20.4258C17.9185 22.1993 24.7067 24.2174 25.5017 31.923ZM10.0294 9.41789C10.1518 9.47905 10.1518 9.60136 10.0906 9.72367C9.96829 10.0294 10.0906 10.4575 10.3964 10.7022C10.7022 10.8856 11.1914 10.8856 11.5583 10.641C11.8641 10.4575 12.1087 10.0906 12.2922 9.66251C12.3533 9.60136 12.4145 9.47905 12.5368 9.5402C12.598 9.5402 12.7203 9.60136 12.7203 9.66251C12.9037 10.3352 13.6376 10.8245 14.3103 10.7022C14.983 10.5798 15.5334 9.96829 15.5334 9.29558C15.5334 9.11212 15.5946 9.05096 15.7169 9.05096C15.8392 9.05096 15.9615 9.11212 15.9615 9.23443C15.9615 10.1518 15.2888 11.0079 14.3715 11.1302C13.6376 11.2525 12.9037 10.8856 12.5368 10.2741C12.2922 10.5798 12.0476 10.8856 11.7418 11.0691C11.4972 11.1914 11.1914 11.2525 10.9468 11.2525C10.641 11.2525 10.3964 11.1914 10.1518 11.0691C9.66252 10.7022 9.41789 10.0294 9.72367 9.47905C9.78482 9.41789 9.90714 9.35674 10.0294 9.41789Z" fill="url(#paint0_diamond_36_12)"/>
<path d="M51.4654 25.1959C52.5662 27.3364 52.5662 29.4768 52.5662 29.5991V44.7656C52.5662 45.0102 52.3827 45.2548 52.1381 45.2548C51.8935 45.2548 51.6489 45.0102 51.6489 44.7656V29.5991C51.6489 29.2933 51.5877 21.5878 43.821 21.5878C36.2989 21.5878 33.2412 30.5776 33.2412 34.308V44.7656C33.2412 45.0102 33.0577 45.2548 32.8131 45.2548C32.5685 45.2548 32.385 45.0102 32.385 44.7656V21.1597C32.385 20.9151 32.5685 20.7316 32.8131 20.7316C33.0577 20.7316 33.2412 20.9151 33.2412 21.1597V29.6602C34.6477 25.5017 37.8278 20.7316 43.821 20.7316C48.3465 20.7316 50.4869 23.1166 51.4654 25.1959Z" fill="url(#paint1_diamond_36_12)"/>
<path d="M68.3447 20.6704C74.4602 20.6704 77.5791 23.8505 77.5791 30.2106V44.7656C77.5791 45.0102 77.3957 45.2548 77.1511 45.2548C76.9064 45.2548 76.6618 45.0102 76.6618 44.7656V40.5459C74.9495 43.6036 70.9744 45.2548 67.1828 45.2548C61.8623 45.2548 59.2326 42.9921 59.2326 38.5277C59.2326 34.4304 62.9631 31.923 69.3232 31.923C74.8883 31.923 76.2949 28.5595 76.5395 27.9479C75.8668 23.667 73.176 21.5266 68.3447 21.5266C62.168 21.5266 60.6392 25.0125 60.578 25.1959C60.4557 25.3794 60.2111 25.5017 59.9665 25.4405C59.7218 25.3182 59.6607 25.0736 59.7218 24.829C59.783 24.6455 61.4953 20.6704 68.3447 20.6704ZM67.1828 44.3375C70.8521 44.3375 76.6618 42.3194 76.6618 36.9989V30.2106C76.6618 29.966 76.6618 29.7826 76.6618 29.5991C75.6833 30.9445 73.604 32.8403 69.3232 32.8403C67.1828 32.8403 60.0888 33.2684 60.0888 38.5277C60.0888 42.5028 62.3515 44.3375 67.1828 44.3375Z" fill="url(#paint2_diamond_36_12)"/>
<path d="M97.7713 20.7316C104.621 20.7316 110.125 26.2356 110.125 33.0849C110.125 39.8732 104.621 45.3771 97.7713 45.3771C92.6343 45.3771 88.17 42.1971 86.3353 37.6716V53.5719C86.3353 53.8165 86.1518 54 85.9072 54C85.6626 54 85.4791 53.8165 85.4791 53.5719V21.1597C85.4791 20.9151 85.6626 20.7316 85.9072 20.7316C86.1518 20.7316 86.3353 20.9151 86.3353 21.1597V28.4371C88.17 23.9117 92.6343 20.7316 97.7713 20.7316ZM97.7713 44.5209C104.131 44.5209 109.207 39.3839 109.207 33.0849C109.207 26.7248 104.131 21.5878 97.7713 21.5878C91.4723 21.5878 86.3353 26.7248 86.3353 33.0849C86.3353 39.3839 91.4723 44.5209 97.7713 44.5209Z" fill="url(#paint3_diamond_36_12)"/>
<path d="M136.337 20.7316C136.582 20.7316 136.765 20.9151 136.765 21.1597V44.7656C136.765 45.0102 136.582 45.2548 136.337 45.2548C136.093 45.2548 135.848 45.0102 135.848 44.7656V36.3262C134.441 40.4236 131.261 45.2548 125.329 45.2548C120.804 45.2548 118.663 42.8086 117.624 40.7905C116.584 38.5889 116.584 36.4485 116.584 36.3262V21.1597C116.584 20.9151 116.768 20.7316 117.012 20.7316C117.257 20.7316 117.44 20.9151 117.44 21.1597V36.3262C117.44 36.6931 117.563 44.3375 125.329 44.3375C132.851 44.3375 135.848 35.3477 135.848 31.6172V21.1597C135.848 20.9151 136.093 20.7316 136.337 20.7316Z" fill="url(#paint4_diamond_36_12)"/>
<path d="M155.848 20.7316C156.092 20.7316 156.276 20.9151 156.276 21.1597C156.276 21.4043 156.092 21.5878 155.848 21.5878C147.164 21.5878 145.818 34.7973 145.757 35.2254V44.7656C145.757 45.0102 145.574 45.2548 145.329 45.2548C145.084 45.2548 144.901 45.0102 144.901 44.7656V21.1597C144.901 20.9151 145.084 20.7316 145.329 20.7316C145.574 20.7316 145.757 20.9151 145.757 21.1597V30.6387C146.98 26.419 149.793 20.7316 155.848 20.7316Z" fill="url(#paint5_diamond_36_12)"/>
<path d="M172.57 20.7316C172.814 20.7316 172.998 20.9151 172.998 21.1597C172.998 21.4043 172.814 21.5878 172.57 21.5878C163.886 21.5878 162.54 34.7973 162.479 35.2254V44.7656C162.479 45.0102 162.296 45.2548 162.051 45.2548C161.807 45.2548 161.623 45.0102 161.623 44.7656V21.1597C161.623 20.9151 161.807 20.7316 162.051 20.7316C162.296 20.7316 162.479 20.9151 162.479 21.1597V30.6387C163.702 26.419 166.515 20.7316 172.57 20.7316Z" fill="url(#paint6_diamond_36_12)"/>
</g>
<defs>
<filter id="filter0_i_36_12" x="0" y="0" width="172.998" height="54" filterUnits="userSpaceOnUse" color-interpolation-filters="sRGB">
<feFlood flood-opacity="0" result="BackgroundImageFix"/>
<feBlend mode="normal" in="SourceGraphic" in2="BackgroundImageFix" result="shape"/>
<feColorMatrix in="SourceAlpha" type="matrix" values="0 0 0 0 0 0 0 0 0 0 0 0 0 0 0 0 0 0 127 0" result="hardAlpha"/>
<feOffset/>
<feGaussianBlur stdDeviation="0.5"/>
<feComposite in2="hardAlpha" operator="arithmetic" k2="-1" k3="1"/>
<feColorMatrix type="matrix" values="0 0 0 0 0 0 0 0 0 0 0 0 0 0 0 0 0 0 0.25 0"/>
<feBlend mode="normal" in2="shape" result="effect1_innerShadow_36_12"/>
</filter>
<radialGradient id="paint0_diamond_36_12" cx="0" cy="0" r="1" gradientUnits="userSpaceOnUse" gradientTransform="translate(86.4989 27) rotate(90) scale(27 86.4989)">
<stop stop-color="#EEDD55"/>
<stop offset="1" stop-color="#CCAA33"/>
</radialGradient>
<radialGradient id="paint1_diamond_36_12" cx="0" cy="0" r="1" gradientUnits="userSpaceOnUse" gradientTransform="translate(86.4989 27) rotate(90) scale(27 86.4989)">
<stop stop-color="#EEDD55"/>
<stop offset="1" stop-color="#CCAA33"/>
</radialGradient>
<radialGradient id="paint2_diamond_36_12" cx="0" cy="0" r="1" gradientUnits="userSpaceOnUse" gradientTransform="translate(86.4989 27) rotate(90) scale(27 86.4989)">
<stop stop-color="#EEDD55"/>
<stop offset="1" stop-color="#CCAA33"/>
</radialGradient>
<radialGradient id="paint3_diamond_36_12" cx="0" cy="0" r="1" gradientUnits="userSpaceOnUse" gradientTransform="translate(86.4989 27) rotate(90) scale(27 86.4989)">
<stop stop-color="#EEDD55"/>
<stop offset="1" stop-color="#CCAA33"/>
</radialGradient>
<radialGradient id="paint4_diamond_36_12" cx="0" cy="0" r="1" gradientUnits="userSpaceOnUse" gradientTransform="translate(86.4989 27) rotate(90) scale(27 86.4989)">
<stop stop-color="#EEDD55"/>
<stop offset="1" stop-color="#CCAA33"/>
</radialGradient>
<radialGradient id="paint5_diamond_36_12" cx="0" cy="0" r="1" gradientUnits="userSpaceOnUse" gradientTransform="translate(86.4989 27) rotate(90) scale(27 86.4989)">
<stop stop-color="#EEDD55"/>
<stop offset="1" stop-color="#CCAA33"/>
</radialGradient>
<radialGradient id="paint6_diamond_36_12" cx="0" cy="0" r="1" gradientUnits="userSpaceOnUse" gradientTransform="translate(86.4989 27) rotate(90) scale(27 86.4989)">
<stop stop-color="#EEDD55"/>
<stop offset="1" stop-color="#CCAA33"/>
</radialGradient>
</defs>
</svg>
