<svg width="173" height="54" viewBox="0 0 173 54" fill="none" xmlns="http://www.w3.org/2000/svg">
<g filter="url(#filter0_i_71_4854)">
<path d="M25.5017 31.923C25.9298 35.8981 25.0125 39.2616 22.9332 41.5243C20.7316 43.9706 17.1846 45.2548 12.7203 45.2548C4.7701 45.2548 0 39.5674 0 34.0634C0 31.3726 1.10079 28.8652 3.18007 26.9694C5.25934 25.0125 8.01133 24.034 10.4575 24.2174C10.7022 24.2786 10.8856 24.4621 10.8856 24.7067C10.8856 24.9513 10.641 25.1348 10.3964 25.1348C8.13364 24.9513 5.68743 25.8686 3.79162 27.6421C1.89581 29.3545 0.856172 31.6172 0.856172 34.0634C0.856172 39.1393 5.3205 44.3986 12.7203 44.3986C16.94 44.3986 20.2424 43.1755 22.2605 40.974C24.1563 38.8335 24.9513 35.7758 24.5844 32.0453C23.8505 24.8901 17.6738 23.0555 11.6806 21.282C5.87089 19.5696 0.428086 17.9796 0.428086 11.7418C0.428086 6.42129 3.97508 4.70894 4.95357 4.34201L6.17667 0.305775C6.23783 0.122309 6.36014 0 6.60476 0C6.78822 0 6.97169 0.122309 7.03284 0.305775L8.01133 4.46432C11.2525 2.50736 14.9219 3.85277 16.2061 4.40317L17.6738 1.16195C17.735 0.978481 17.9185 0.856172 18.1631 0.917326C18.3465 0.917326 18.53 1.10079 18.53 1.28426L18.9581 5.62627C19.6308 5.68743 21.0985 6.11551 22.8109 7.7667C22.9943 7.95017 23.0555 8.19479 22.872 8.37825C22.6886 8.56172 22.3828 8.56172 22.1993 8.43941C20.1812 6.48245 18.53 6.48245 18.53 6.48245C18.2854 6.48245 18.1019 6.29898 18.0408 6.05436L17.7962 3.11891L16.8177 5.25934C16.7565 5.3205 16.6954 5.44281 16.573 5.50396C16.4507 5.50396 16.3284 5.50396 16.2061 5.44281C16.145 5.44281 11.5583 2.9966 8.01133 5.56512C7.88902 5.62627 7.70555 5.68743 7.58324 5.62627C7.39977 5.56512 7.33862 5.44281 7.27746 5.3205L6.5436 2.14043L5.74858 4.83126C5.68743 4.95357 5.56512 5.07588 5.44281 5.13703C5.25934 5.13703 1.34541 6.29898 1.34541 11.7418C1.34541 17.3069 6.23783 18.7746 11.9253 20.4258C17.9185 22.1993 24.7067 24.2174 25.5017 31.923Z" fill="url(#paint0_diamond_71_4854)"/>
<path d="M51.4654 25.1959C52.5662 27.3364 52.5662 29.4768 52.5662 29.5991V44.7656C52.5662 45.0102 52.3827 45.2548 52.1381 45.2548C51.8935 45.2548 51.6489 45.0102 51.6489 44.7656V29.5991C51.6489 29.2933 51.5877 21.5878 43.821 21.5878C36.2989 21.5878 33.2412 30.5776 33.2412 34.308V44.7656C33.2412 45.0102 33.0577 45.2548 32.8131 45.2548C32.5685 45.2548 32.385 45.0102 32.385 44.7656V21.1597C32.385 20.9151 32.5685 20.7316 32.8131 20.7316C33.0577 20.7316 33.2412 20.9151 33.2412 21.1597V29.6602C34.6477 25.5017 37.8278 20.7316 43.821 20.7316C48.3465 20.7316 50.4869 23.1166 51.4654 25.1959Z" fill="url(#paint1_diamond_71_4854)"/>
<path d="M68.3447 20.6704C74.4602 20.6704 77.5791 23.8505 77.5791 30.2106V44.7656C77.5791 45.0102 77.3957 45.2548 77.1511 45.2548C76.9064 45.2548 76.6618 45.0102 76.6618 44.7656V40.5459C74.9495 43.6036 70.9744 45.2548 67.1828 45.2548C61.8623 45.2548 59.2326 42.9921 59.2326 38.5277C59.2326 34.4303 62.9631 31.923 69.3232 31.923C74.8883 31.923 76.2949 28.5595 76.5395 27.9479C75.8668 23.667 73.176 21.5266 68.3447 21.5266C62.168 21.5266 60.6392 25.0125 60.578 25.1959C60.4557 25.3794 60.2111 25.5017 59.9664 25.4405C59.7218 25.3182 59.6607 25.0736 59.7218 24.829C59.783 24.6455 61.4953 20.6704 68.3447 20.6704ZM67.1828 44.3375C70.8521 44.3375 76.6618 42.3194 76.6618 36.9989V30.2106C76.6618 29.966 76.6618 29.7826 76.6618 29.5991C75.6833 30.9445 73.604 32.8403 69.3232 32.8403C67.1828 32.8403 60.0888 33.2684 60.0888 38.5277C60.0888 42.5028 62.3515 44.3375 67.1828 44.3375Z" fill="url(#paint2_diamond_71_4854)"/>
<path d="M97.7713 20.7316C104.621 20.7316 110.125 26.2356 110.125 33.0849C110.125 39.8732 104.621 45.3771 97.7713 45.3771C92.6343 45.3771 88.17 42.1971 86.3353 37.6716V53.5719C86.3353 53.8165 86.1518 54 85.9072 54C85.6626 54 85.4791 53.8165 85.4791 53.5719V21.1597C85.4791 20.9151 85.6626 20.7316 85.9072 20.7316C86.1518 20.7316 86.3353 20.9151 86.3353 21.1597V28.4371C88.17 23.9117 92.6343 20.7316 97.7713 20.7316ZM97.7713 44.5209C104.131 44.5209 109.207 39.3839 109.207 33.0849C109.207 26.7248 104.131 21.5878 97.7713 21.5878C91.4723 21.5878 86.3353 26.7248 86.3353 33.0849C86.3353 39.3839 91.4723 44.5209 97.7713 44.5209Z" fill="url(#paint3_diamond_71_4854)"/>
<path d="M136.337 20.7316C136.582 20.7316 136.765 20.9151 136.765 21.1597V44.7656C136.765 45.0102 136.582 45.2548 136.337 45.2548C136.093 45.2548 135.848 45.0102 135.848 44.7656V36.3262C134.441 40.4236 131.261 45.2548 125.329 45.2548C120.804 45.2548 118.663 42.8086 117.624 40.7905C116.584 38.5889 116.584 36.4485 116.584 36.3262V21.1597C116.584 20.9151 116.768 20.7316 117.012 20.7316C117.257 20.7316 117.44 20.9151 117.44 21.1597V36.3262C117.44 36.6931 117.563 44.3375 125.329 44.3375C132.851 44.3375 135.848 35.3477 135.848 31.6172V21.1597C135.848 20.9151 136.093 20.7316 136.337 20.7316Z" fill="url(#paint4_diamond_71_4854)"/>
<path d="M155.848 20.7316C156.092 20.7316 156.276 20.9151 156.276 21.1597C156.276 21.4043 156.092 21.5878 155.848 21.5878C147.164 21.5878 145.818 34.7973 145.757 35.2254V44.7656C145.757 45.0102 145.574 45.2548 145.329 45.2548C145.084 45.2548 144.901 45.0102 144.901 44.7656V21.1597C144.901 20.9151 145.084 20.7316 145.329 20.7316C145.574 20.7316 145.757 20.9151 145.757 21.1597V30.6387C146.98 26.419 149.793 20.7316 155.848 20.7316Z" fill="url(#paint5_diamond_71_4854)"/>
<path d="M172.57 20.7316C172.814 20.7316 172.998 20.9151 172.998 21.1597C172.998 21.4043 172.814 21.5878 172.57 21.5878C163.886 21.5878 162.54 34.7973 162.479 35.2254V44.7656C162.479 45.0102 162.296 45.2548 162.051 45.2548C161.806 45.2548 161.623 45.0102 161.623 44.7656V21.1597C161.623 20.9151 161.806 20.7316 162.051 20.7316C162.296 20.7316 162.479 20.9151 162.479 21.1597V30.6387C163.702 26.419 166.515 20.7316 172.57 20.7316Z" fill="url(#paint6_diamond_71_4854)"/>
</g>
<path d="M9.75588 12.3258C9.75588 12.3258 7.65978 13.4569 6.0703 12.7157C4.48082 11.9744 4 9.64175 4 9.64175C4 9.64175 6.09611 8.51058 7.68558 9.25182C9.27506 9.99306 9.75588 12.3258 9.75588 12.3258Z" fill="#EEDD55"/>
<path d="M9.18438 10.9838C9.18438 10.9173 9.1809 10.8516 9.17477 10.7867C8.85134 10.189 8.37203 9.57199 7.68551 9.25185C7.34032 9.09089 6.9712 9.01837 6.60491 9.0033C5.72946 9.23678 5.08447 10.0348 5.08447 10.9838C5.08447 11.6708 5.42279 12.2785 5.94156 12.6505C5.9838 12.6735 6.0267 12.6953 6.07022 12.7158C6.60275 12.9641 7.19188 13.0018 7.74023 12.9427C8.57669 12.6844 9.18438 11.9051 9.18438 10.9838Z" fill="#CCAA33"/>
<path d="M7.68564 9.25176C7.43275 9.13384 7.16705 9.06367 6.899 9.02844C6.49682 9.5928 6.34095 10.3224 6.52225 11.0198C6.60665 11.3482 6.75978 11.655 6.97152 11.9199C7.14991 12.1424 7.50376 12.0153 7.51111 11.7302C7.52084 11.3614 7.61541 10.9999 7.78748 10.6736C7.95954 10.3473 8.20447 10.0651 8.50326 9.8488C8.27053 9.60787 8.00012 9.3984 7.68564 9.25176Z" fill="black"/>
<path d="M6.31197 10.8853L6.18228 10.8506C6.07532 10.8216 5.98418 10.7515 5.92876 10.6555C5.87335 10.5595 5.85817 10.4455 5.88654 10.3384C5.91552 10.2314 5.98566 10.1403 6.08162 10.0849C6.17759 10.0295 6.29159 10.0143 6.39872 10.0427L6.52841 10.0774C6.63537 10.1064 6.72652 10.1765 6.78193 10.2725C6.83735 10.3685 6.85253 10.4825 6.82416 10.5896C6.79517 10.6966 6.72504 10.7877 6.62907 10.8431C6.5331 10.8985 6.4191 10.9137 6.31197 10.8853Z" fill="#EDEDF4"/>
<path d="M13.2441 12.3258C13.2441 12.3258 15.3402 13.4569 16.9297 12.7157C18.5192 11.9745 19 9.64175 19 9.64175C19 9.64175 16.9039 8.51058 15.3144 9.25182C13.725 9.99306 13.2441 12.3258 13.2441 12.3258Z" fill="#EEDD55"/>
<path d="M16.3944 9.0033C16.0281 9.01837 15.659 9.09089 15.3138 9.25185C14.6273 9.57199 14.148 10.1889 13.8245 10.7867C13.8182 10.8522 13.815 10.918 13.8149 10.9838C13.8149 11.9051 14.4227 12.6844 15.2591 12.9427C15.8074 13.0018 16.3967 12.9641 16.9291 12.7158C16.973 12.6954 17.0157 12.6732 17.0578 12.6505C17.5765 12.2785 17.9149 11.6708 17.9149 10.9838C17.9148 10.0348 17.2698 9.23678 16.3944 9.0033Z" fill="#CCAA33"/>
<path d="M16.0283 11.9199C16.2401 11.655 16.3932 11.3482 16.4775 11.0198C16.6588 10.3223 16.5029 9.5928 16.1008 9.02844C15.8327 9.06367 15.567 9.13384 15.3141 9.25176C14.9996 9.3984 14.7291 9.60787 14.4966 9.8488C14.7954 10.0651 15.0403 10.3473 15.2124 10.6736C15.3844 10.9999 15.479 11.3614 15.4887 11.7302C15.4961 12.0153 15.85 12.1424 16.0283 11.9199Z" fill="black"/>
<path d="M15.0984 10.9696L15.2281 10.9348C15.3351 10.9058 15.4262 10.8357 15.4816 10.7397C15.5371 10.6438 15.5522 10.5298 15.5239 10.4226C15.4949 10.3157 15.4247 10.2245 15.3288 10.1691C15.2328 10.1137 15.1188 10.0985 15.0117 10.1269L14.882 10.1616C14.775 10.1906 14.6839 10.2608 14.6285 10.3567C14.5731 10.4527 14.5579 10.5667 14.5862 10.6738C14.6152 10.7808 14.6854 10.8719 14.7813 10.9273C14.8773 10.9828 14.9913 10.9979 15.0984 10.9696Z" fill="#EDEDF4"/>
<defs>
<filter id="filter0_i_71_4854" x="0" y="0" width="172.998" height="54" filterUnits="userSpaceOnUse" color-interpolation-filters="sRGB">
<feFlood flood-opacity="0" result="BackgroundImageFix"/>
<feBlend mode="normal" in="SourceGraphic" in2="BackgroundImageFix" result="shape"/>
<feColorMatrix in="SourceAlpha" type="matrix" values="0 0 0 0 0 0 0 0 0 0 0 0 0 0 0 0 0 0 127 0" result="hardAlpha"/>
<feOffset/>
<feGaussianBlur stdDeviation="0.5"/>
<feComposite in2="hardAlpha" operator="arithmetic" k2="-1" k3="1"/>
<feColorMatrix type="matrix" values="0 0 0 0 0 0 0 0 0 0 0 0 0 0 0 0 0 0 0.25 0"/>
<feBlend mode="normal" in2="shape" result="effect1_innerShadow_71_4854"/>
</filter>
<radialGradient id="paint0_diamond_71_4854" cx="0" cy="0" r="1" gradientUnits="userSpaceOnUse" gradientTransform="translate(86.4989 27) rotate(90) scale(27 86.4989)">
<stop stop-color="#EEDD55"/>
<stop offset="1" stop-color="#CCAA33"/>
</radialGradient>
<radialGradient id="paint1_diamond_71_4854" cx="0" cy="0" r="1" gradientUnits="userSpaceOnUse" gradientTransform="translate(86.4989 27) rotate(90) scale(27 86.4989)">
<stop stop-color="#EEDD55"/>
<stop offset="1" stop-color="#CCAA33"/>
</radialGradient>
<radialGradient id="paint2_diamond_71_4854" cx="0" cy="0" r="1" gradientUnits="userSpaceOnUse" gradientTransform="translate(86.4989 27) rotate(90) scale(27 86.4989)">
<stop stop-color="#EEDD55"/>
<stop offset="1" stop-color="#CCAA33"/>
</radialGradient>
<radialGradient id="paint3_diamond_71_4854" cx="0" cy="0" r="1" gradientUnits="userSpaceOnUse" gradientTransform="translate(86.4989 27) rotate(90) scale(27 86.4989)">
<stop stop-color="#EEDD55"/>
<stop offset="1" stop-color="#CCAA33"/>
</radialGradient>
<radialGradient id="paint4_diamond_71_4854" cx="0" cy="0" r="1" gradientUnits="userSpaceOnUse" gradientTransform="translate(86.4989 27) rotate(90) scale(27 86.4989)">
<stop stop-color="#EEDD55"/>
<stop offset="1" stop-color="#CCAA33"/>
</radialGradient>
<radialGradient id="paint5_diamond_71_4854" cx="0" cy="0" r="1" gradientUnits="userSpaceOnUse" gradientTransform="translate(86.4989 27) rotate(90) scale(27 86.4989)">
<stop stop-color="#EEDD55"/>
<stop offset="1" stop-color="#CCAA33"/>
</radialGradient>
<radialGradient id="paint6_diamond_71_4854" cx="0" cy="0" r="1" gradientUnits="userSpaceOnUse" gradientTransform="translate(86.4989 27) rotate(90) scale(27 86.4989)">
<stop stop-color="#EEDD55"/>
<stop offset="1" stop-color="#CCAA33"/>
</radialGradient>
</defs>
</svg>
