<svg width="215" height="68" viewBox="0 0 215 68" fill="none" xmlns="http://www.w3.org/2000/svg">
<path d="M31.692 39.672C32.224 44.612 31.084 48.792 28.5 51.604C25.764 54.644 21.356 56.24 15.808 56.24C5.928 56.24 0 49.172 0 42.332C0 38.988 1.368 35.872 3.952 33.516C6.536 31.084 9.956 29.868 12.996 30.096C13.3 30.172 13.528 30.4 13.528 30.704C13.528 31.008 13.224 31.236 12.92 31.236C10.108 31.008 7.068 32.148 4.712 34.352C2.356 36.48 1.064 39.292 1.064 42.332C1.064 48.64 6.612 55.176 15.808 55.176C21.052 55.176 25.156 53.656 27.664 50.92C30.02 48.26 31.008 44.46 30.552 39.824C29.64 30.932 21.964 28.652 14.516 26.448C7.296 24.32 0.532 22.344 0.532 14.592C0.532 7.98 4.94 5.852 6.156 5.396L7.676 0.38C7.752 0.151998 7.904 0 8.208 0C8.436 0 8.664 0.151998 8.74 0.38L9.956 5.548C13.984 3.116 18.544 4.788 20.14 5.472L21.964 1.444C22.04 1.216 22.268 1.064 22.572 1.14C22.8 1.14 23.028 1.368 23.028 1.596L23.56 6.992C24.396 7.068 26.22 7.6 28.348 9.652C28.576 9.88 28.652 10.184 28.424 10.412C28.196 10.64 27.816 10.64 27.588 10.488C25.08 8.056 23.028 8.056 23.028 8.056C22.724 8.056 22.496 7.828 22.42 7.524L22.116 3.876L20.9 6.536C20.824 6.612 20.748 6.764 20.596 6.84C20.444 6.84 20.292 6.84 20.14 6.764C20.064 6.764 14.364 3.724 9.956 6.916C9.804 6.992 9.576 7.068 9.424 6.992C9.196 6.916 9.12 6.764 9.044 6.612L8.132 2.66L7.144 6.004C7.068 6.156 6.916 6.308 6.764 6.384C6.536 6.384 1.672 7.828 1.672 14.592C1.672 21.508 7.752 23.332 14.82 25.384C22.268 27.588 30.704 30.096 31.692 39.672ZM12.464 11.704C12.616 11.78 12.616 11.932 12.54 12.084C12.388 12.464 12.54 12.996 12.92 13.3C13.3 13.528 13.908 13.528 14.364 13.224C14.744 12.996 15.048 12.54 15.276 12.008C15.352 11.932 15.428 11.78 15.58 11.856C15.656 11.856 15.808 11.932 15.808 12.008C16.036 12.844 16.948 13.452 17.784 13.3C18.62 13.148 19.304 12.388 19.304 11.552C19.304 11.324 19.38 11.248 19.532 11.248C19.684 11.248 19.836 11.324 19.836 11.476C19.836 12.616 19 13.68 17.86 13.832C16.948 13.984 16.036 13.528 15.58 12.768C15.276 13.148 14.972 13.528 14.592 13.756C14.288 13.908 13.908 13.984 13.604 13.984C13.224 13.984 12.92 13.908 12.616 13.756C12.008 13.3 11.704 12.464 12.084 11.78C12.16 11.704 12.312 11.628 12.464 11.704Z" fill="#7755EE"/>
<path d="M63.9582 31.312C65.3262 33.972 65.3262 36.632 65.3262 36.784V55.632C65.3262 55.936 65.0982 56.24 64.7942 56.24C64.4902 56.24 64.1862 55.936 64.1862 55.632V36.784C64.1862 36.404 64.1102 26.828 54.4582 26.828C45.1102 26.828 41.3102 38 41.3102 42.636V55.632C41.3102 55.936 41.0822 56.24 40.7782 56.24C40.4742 56.24 40.2462 55.936 40.2462 55.632V26.296C40.2462 25.992 40.4742 25.764 40.7782 25.764C41.0822 25.764 41.3102 25.992 41.3102 26.296V36.86C43.0582 31.692 47.0102 25.764 54.4582 25.764C60.0822 25.764 62.7422 28.728 63.9582 31.312Z" fill="#7755EE"/>
<path d="M84.9348 25.688C92.5348 25.688 96.4108 29.64 96.4108 37.544V55.632C96.4108 55.936 96.1828 56.24 95.8788 56.24C95.5748 56.24 95.2708 55.936 95.2708 55.632V50.388C93.1428 54.188 88.2028 56.24 83.4908 56.24C76.8788 56.24 73.6107 53.428 73.6107 47.88C73.6107 42.788 78.2467 39.672 86.1507 39.672C93.0667 39.672 94.8148 35.492 95.1188 34.732C94.2828 29.412 90.9388 26.752 84.9348 26.752C77.2588 26.752 75.3588 31.084 75.2828 31.312C75.1308 31.54 74.8268 31.692 74.5228 31.616C74.2188 31.464 74.1427 31.16 74.2188 30.856C74.2947 30.628 76.4228 25.688 84.9348 25.688ZM83.4908 55.1C88.0508 55.1 95.2708 52.592 95.2708 45.98V37.544C95.2708 37.24 95.2708 37.012 95.2708 36.784C94.0548 38.456 91.4707 40.812 86.1507 40.812C83.4907 40.812 74.6748 41.344 74.6748 47.88C74.6748 52.82 77.4868 55.1 83.4908 55.1Z" fill="#7755EE"/>
<path d="M121.504 25.764C130.016 25.764 136.856 32.604 136.856 41.116C136.856 49.552 130.016 56.392 121.504 56.392C115.12 56.392 109.572 52.44 107.292 46.816V66.576C107.292 66.88 107.064 67.108 106.76 67.108C106.456 67.108 106.228 66.88 106.228 66.576V26.296C106.228 25.992 106.456 25.764 106.76 25.764C107.064 25.764 107.292 25.992 107.292 26.296V35.34C109.572 29.716 115.12 25.764 121.504 25.764ZM121.504 55.328C129.408 55.328 135.716 48.944 135.716 41.116C135.716 33.212 129.408 26.828 121.504 26.828C113.676 26.828 107.292 33.212 107.292 41.116C107.292 48.944 113.676 55.328 121.504 55.328Z" fill="#7755EE"/>
<path d="M169.432 25.764C169.736 25.764 169.964 25.992 169.964 26.296V55.632C169.964 55.936 169.736 56.24 169.432 56.24C169.128 56.24 168.824 55.936 168.824 55.632V45.144C167.076 50.236 163.124 56.24 155.752 56.24C150.128 56.24 147.468 53.2 146.176 50.692C144.884 47.956 144.884 45.296 144.884 45.144V26.296C144.884 25.992 145.112 25.764 145.416 25.764C145.72 25.764 145.948 25.992 145.948 26.296V45.144C145.948 45.6 146.1 55.1 155.752 55.1C165.1 55.1 168.824 43.928 168.824 39.292V26.296C168.824 25.992 169.128 25.764 169.432 25.764Z" fill="#7755EE"/>
<path d="M193.678 25.764C193.982 25.764 194.21 25.992 194.21 26.296C194.21 26.6 193.982 26.828 193.678 26.828C182.886 26.828 181.214 43.244 181.138 43.776V55.632C181.138 55.936 180.91 56.24 180.606 56.24C180.302 56.24 180.074 55.936 180.074 55.632V26.296C180.074 25.992 180.302 25.764 180.606 25.764C180.91 25.764 181.138 25.992 181.138 26.296V38.076C182.658 32.832 186.154 25.764 193.678 25.764Z" fill="#7755EE"/>
<path d="M214.46 25.764C214.764 25.764 214.992 25.992 214.992 26.296C214.992 26.6 214.764 26.828 214.46 26.828C203.668 26.828 201.996 43.244 201.92 43.776V55.632C201.92 55.936 201.692 56.24 201.388 56.24C201.084 56.24 200.856 55.936 200.856 55.632V26.296C200.856 25.992 201.084 25.764 201.388 25.764C201.692 25.764 201.92 25.992 201.92 26.296V38.076C203.44 32.832 206.936 25.764 214.46 25.764Z" fill="#7755EE"/>
</svg>
