<svg width="216" height="68" viewBox="0 0 216 68" fill="none" xmlns="http://www.w3.org/2000/svg">
<path d="M31.8719 40.432C32.4039 45.372 31.2639 49.552 28.6799 52.364C25.9439 55.404 21.5359 57 15.9879 57C6.10793 57 0.179932 49.932 0.179932 43.092C0.179932 39.748 1.54793 36.632 4.13193 34.276C6.71593 31.844 10.1359 30.628 13.1759 30.856C13.4799 30.932 13.7079 31.16 13.7079 31.464C13.7079 31.768 13.4039 31.996 13.0999 31.996C10.2879 31.768 7.24793 32.908 4.89193 35.112C2.53593 37.24 1.24393 40.052 1.24393 43.092C1.24393 49.4 6.79193 55.936 15.9879 55.936C21.2319 55.936 25.3359 54.416 27.8439 51.68C30.1999 49.02 31.1879 45.22 30.7319 40.584C29.8199 31.692 22.1439 29.412 14.6959 27.208C7.47593 25.08 0.711932 23.104 0.711932 15.352C0.711932 8.74001 5.11993 6.61201 6.33593 6.15601L7.85593 1.14001C7.93193 0.912008 8.08393 0.76001 8.38793 0.76001C8.61593 0.76001 8.84393 0.912008 8.91993 1.14001L10.1359 6.30801C14.1639 3.87601 18.7239 5.54801 20.3199 6.23201L22.1439 2.20401C22.2199 1.97601 22.4479 1.82401 22.7519 1.90001C22.9799 1.90001 23.2079 2.12801 23.2079 2.35601L23.7399 7.75201C24.5759 7.82801 26.3999 8.36001 28.5279 10.412C28.7559 10.64 28.8319 10.944 28.6039 11.172C28.3759 11.4 27.9959 11.4 27.7679 11.248C25.2599 8.81601 23.2079 8.81601 23.2079 8.81601C22.9039 8.81601 22.6759 8.58801 22.5999 8.28401L22.2959 4.63601L21.0799 7.29601C21.0039 7.37201 20.9279 7.52401 20.7759 7.60001C20.6239 7.60001 20.4719 7.60001 20.3199 7.52401C20.2439 7.52401 14.5439 4.48401 10.1359 7.67601C9.98393 7.75201 9.75593 7.82801 9.60393 7.75201C9.37593 7.67601 9.29993 7.52401 9.22393 7.37201L8.31193 3.42001L7.32393 6.76401C7.24793 6.91601 7.09593 7.06801 6.94393 7.14401C6.71593 7.14401 1.85193 8.58801 1.85193 15.352C1.85193 22.268 7.93193 24.092 14.9999 26.144C22.4479 28.348 30.8839 30.856 31.8719 40.432ZM12.6439 12.464C12.7959 12.54 12.7959 12.692 12.7199 12.844C12.5679 13.224 12.7199 13.756 13.0999 14.06C13.4799 14.288 14.0879 14.288 14.5439 13.984C14.9239 13.756 15.2279 13.3 15.4559 12.768C15.5319 12.692 15.6079 12.54 15.7599 12.616C15.8359 12.616 15.9879 12.692 15.9879 12.768C16.2159 13.604 17.1279 14.212 17.9639 14.06C18.7999 13.908 19.4839 13.148 19.4839 12.312C19.4839 12.084 19.5599 12.008 19.7119 12.008C19.8639 12.008 20.0159 12.084 20.0159 12.236C20.0159 13.376 19.1799 14.44 18.0399 14.592C17.1279 14.744 16.2159 14.288 15.7599 13.528C15.4559 13.908 15.1519 14.288 14.7719 14.516C14.4679 14.668 14.0879 14.744 13.7839 14.744C13.4039 14.744 13.0999 14.668 12.7959 14.516C12.1879 14.06 11.8839 13.224 12.2639 12.54C12.3399 12.464 12.4919 12.388 12.6439 12.464Z" fill="black"/>
<path d="M64.1381 32.072C65.5061 34.732 65.5061 37.392 65.5061 37.544V56.392C65.5061 56.696 65.2781 57 64.9741 57C64.6701 57 64.3661 56.696 64.3661 56.392V37.544C64.3661 37.164 64.2901 27.588 54.6381 27.588C45.2901 27.588 41.4901 38.76 41.4901 43.396V56.392C41.4901 56.696 41.2621 57 40.9581 57C40.6541 57 40.4261 56.696 40.4261 56.392V27.056C40.4261 26.752 40.6541 26.524 40.9581 26.524C41.2621 26.524 41.4901 26.752 41.4901 27.056V37.62C43.2381 32.452 47.1901 26.524 54.6381 26.524C60.2621 26.524 62.9221 29.488 64.1381 32.072Z" fill="black"/>
<path d="M85.1147 26.448C92.7147 26.448 96.5907 30.4 96.5907 38.304V56.392C96.5907 56.696 96.3627 57 96.0587 57C95.7547 57 95.4507 56.696 95.4507 56.392V51.148C93.3227 54.948 88.3827 57 83.6707 57C77.0587 57 73.7907 54.188 73.7907 48.64C73.7907 43.548 78.4267 40.432 86.3307 40.432C93.2467 40.432 94.9947 36.252 95.2987 35.492C94.4627 30.172 91.1187 27.512 85.1147 27.512C77.4387 27.512 75.5387 31.844 75.4627 32.072C75.3107 32.3 75.0067 32.452 74.7027 32.376C74.3987 32.224 74.3227 31.92 74.3987 31.616C74.4747 31.388 76.6027 26.448 85.1147 26.448ZM83.6707 55.86C88.2307 55.86 95.4507 53.352 95.4507 46.74V38.304C95.4507 38 95.4507 37.772 95.4507 37.544C94.2347 39.216 91.6507 41.572 86.3307 41.572C83.6707 41.572 74.8547 42.104 74.8547 48.64C74.8547 53.58 77.6667 55.86 83.6707 55.86Z" fill="black"/>
<path d="M121.684 26.524C130.196 26.524 137.036 33.364 137.036 41.876C137.036 50.312 130.196 57.152 121.684 57.152C115.3 57.152 109.752 53.2 107.472 47.576V67.336C107.472 67.64 107.244 67.868 106.94 67.868C106.636 67.868 106.408 67.64 106.408 67.336V27.056C106.408 26.752 106.636 26.524 106.94 26.524C107.244 26.524 107.472 26.752 107.472 27.056V36.1C109.752 30.476 115.3 26.524 121.684 26.524ZM121.684 56.088C129.588 56.088 135.896 49.704 135.896 41.876C135.896 33.972 129.588 27.588 121.684 27.588C113.856 27.588 107.472 33.972 107.472 41.876C107.472 49.704 113.856 56.088 121.684 56.088Z" fill="black"/>
<path d="M169.612 26.524C169.916 26.524 170.144 26.752 170.144 27.056V56.392C170.144 56.696 169.916 57 169.612 57C169.308 57 169.004 56.696 169.004 56.392V45.904C167.256 50.996 163.304 57 155.932 57C150.308 57 147.648 53.96 146.356 51.452C145.064 48.716 145.064 46.056 145.064 45.904V27.056C145.064 26.752 145.292 26.524 145.596 26.524C145.9 26.524 146.128 26.752 146.128 27.056V45.904C146.128 46.36 146.28 55.86 155.932 55.86C165.28 55.86 169.004 44.688 169.004 40.052V27.056C169.004 26.752 169.308 26.524 169.612 26.524Z" fill="black"/>
<path d="M193.858 26.524C194.162 26.524 194.39 26.752 194.39 27.056C194.39 27.36 194.162 27.588 193.858 27.588C183.066 27.588 181.394 44.004 181.318 44.536V56.392C181.318 56.696 181.09 57 180.786 57C180.482 57 180.254 56.696 180.254 56.392V27.056C180.254 26.752 180.482 26.524 180.786 26.524C181.09 26.524 181.318 26.752 181.318 27.056V38.836C182.838 33.592 186.334 26.524 193.858 26.524Z" fill="black"/>
<path d="M214.639 26.524C214.943 26.524 215.171 26.752 215.171 27.056C215.171 27.36 214.943 27.588 214.639 27.588C203.847 27.588 202.175 44.004 202.099 44.536V56.392C202.099 56.696 201.871 57 201.567 57C201.263 57 201.035 56.696 201.035 56.392V27.056C201.035 26.752 201.263 26.524 201.567 26.524C201.871 26.524 202.099 26.752 202.099 27.056V38.836C203.619 33.592 207.115 26.524 214.639 26.524Z" fill="black"/>
</svg>
